<?xml version="1.0" encoding="utf-8"?>
<!-- Generator: Adobe Illustrator 23.0.1, SVG Export Plug-In . SVG Version: 6.00 Build 0)  -->
<svg version="1.1" id="Layer_1" xmlns="http://www.w3.org/2000/svg" xmlns:xlink="http://www.w3.org/1999/xlink" x="0px" y="0px"
	 viewBox="0 0 1360.1 1663.7" style="enable-background:new 0 0 1360.1 1663.7;" xml:space="preserve">
<style type="text/css">
	.st0{clip-path:url(#SVGID_2_);fill:#0B2851;}
	.st1{clip-path:url(#SVGID_2_);}
	.st2{fill:#0B2851;}
	.st3{opacity:0.15;clip-path:url(#SVGID_2_);fill:#0B2851;}
	.st4{clip-path:url(#SVGID_2_);fill:url(#SVGID_3_);}
	.st5{clip-path:url(#SVGID_2_);fill:#BBD9F9;}
	.st6{clip-path:url(#SVGID_2_);fill:#FFFFFF;}
	.st7{clip-path:url(#SVGID_2_);fill:url(#SVGID_4_);}
	.st8{clip-path:url(#SVGID_2_);fill:#6AA8E5;}
	.st9{opacity:0.1;clip-path:url(#SVGID_2_);fill:#8DA6FF;}
	.st10{clip-path:url(#SVGID_2_);fill:url(#SVGID_5_);}
	.st11{clip-path:url(#SVGID_2_);fill:#3A6599;}
	.st12{clip-path:url(#SVGID_2_);fill:#4477A0;}
	.st13{clip-path:url(#SVGID_2_);fill:#264F77;}
	.st14{clip-path:url(#SVGID_2_);fill:#5187BC;}
	.st15{clip-path:url(#SVGID_2_);fill:#88B8F6;}
	.st16{clip-path:url(#SVGID_2_);fill:none;stroke:#0B2851;stroke-width:5;stroke-miterlimit:10;}
	.st17{fill:none;stroke:#0B2851;stroke-width:2;stroke-miterlimit:10;}
	.st18{opacity:0.15;}
	.st19{opacity:0.9;clip-path:url(#SVGID_2_);fill:#FFFFFF;}
	.st20{opacity:0.5;clip-path:url(#SVGID_2_);fill:#FFFFFF;}
	.st21{opacity:0.3;clip-path:url(#SVGID_2_);fill:#FFFFFF;}
	.st22{opacity:0.15;clip-path:url(#SVGID_2_);}
	.st23{opacity:0.6;fill:#FFFFFF;}
	.st24{opacity:0.4;clip-path:url(#SVGID_2_);fill:#FFFFFF;}
	.st25{clip-path:url(#SVGID_2_);fill:#7DAFD8;}
	.st26{clip-path:url(#SVGID_2_);fill:none;stroke:#0B2851;stroke-miterlimit:10;}
	.st27{clip-path:url(#SVGID_2_);fill:#92BFDD;}
	.st28{clip-path:url(#SVGID_2_);fill:#21446D;}
	.st29{clip-path:url(#SVGID_2_);fill:#F6BFBC;}
	.st30{clip-path:url(#SVGID_2_);fill:#F7C4C0;}
	.st31{clip-path:url(#SVGID_2_);fill:#F7C5C2;}
	.st32{clip-path:url(#SVGID_2_);fill:#F7C1BE;}
	.st33{clip-path:url(#SVGID_2_);fill:#F6BEBC;}
	.st34{clip-path:url(#SVGID_2_);fill:#B74145;}
	.st35{clip-path:url(#SVGID_2_);fill:#F7BEBB;}
	.st36{clip-path:url(#SVGID_2_);fill:none;}
	.st37{clip-path:url(#SVGID_2_);fill:url(#SVGID_6_);}
	.st38{clip-path:url(#SVGID_2_);fill:#CCCCCC;}
	.st39{opacity:0.14;clip-path:url(#SVGID_2_);fill:#FFFFFF;}
	.st40{clip-path:url(#SVGID_2_);fill:none;stroke:#FFFFFF;stroke-miterlimit:10;}
	.st41{fill:#21446D;}
	.st42{fill:#F7C1BE;}
	.st43{opacity:0.8;clip-path:url(#SVGID_2_);fill:#FFFFFF;}
	.st44{opacity:0.2;clip-path:url(#SVGID_2_);fill:#FFFFFF;}
	.st45{clip-path:url(#SVGID_2_);fill:url(#SVGID_7_);}
	.st46{clip-path:url(#SVGID_2_);fill:#5E98DD;}
	.st47{clip-path:url(#SVGID_2_);fill:#4598DD;}
	.st48{clip-path:url(#SVGID_2_);fill:url(#SVGID_8_);}
	.st49{opacity:5.000000e-02;}
	.st50{fill:url(#SVGID_9_);}
	.st51{fill:#333232;}
	.st52{fill:#121212;}
	.st53{fill:#3A6599;}
	.st54{fill:url(#SVGID_10_);}
	.st55{opacity:0.3;}
	.st56{fill:url(#SVGID_11_);}
	.st57{fill:#FAD3CF;}
	.st58{fill:url(#SVGID_12_);}
	.st59{fill:#FFFFFF;}
	.st60{fill:url(#SVGID_13_);}
	.st61{fill:#A6A4A0;}
	.st62{fill:#E7EBEC;}
	.st63{fill:#232323;stroke:#383838;stroke-miterlimit:10;}
	.st64{fill:url(#SVGID_14_);}
	.st65{fill:url(#SVGID_15_);}
	.st66{fill:url(#SVGID_16_);}
	.st67{fill:url(#SVGID_17_);}
	.st68{fill:url(#SVGID_18_);}
	.st69{fill:url(#SVGID_19_);}
	.st70{fill:url(#SVGID_20_);}
	.st71{fill:url(#SVGID_21_);}
	.st72{fill:url(#SVGID_22_);}
	.st73{fill:url(#SVGID_23_);}
	.st74{fill:none;stroke:url(#SVGID_24_);stroke-width:0.75;stroke-miterlimit:10;}
	.st75{opacity:0.62;fill:#D6EFFA;enable-background:new    ;}
	.st76{fill:url(#SVGID_25_);}
	.st77{fill:url(#SVGID_26_);}
	.st78{fill:url(#SVGID_27_);}
	.st79{fill:url(#SVGID_28_);}
	.st80{fill:url(#SVGID_29_);}
	.st81{fill:url(#SVGID_30_);}
	.st82{fill:url(#SVGID_31_);}
	.st83{fill:url(#SVGID_32_);}
	.st84{opacity:0.15;fill:none;stroke:#121212;stroke-miterlimit:10;}
	.st85{fill:none;stroke:#121212;stroke-miterlimit:10;}
	.st86{opacity:0.3;fill:url(#SVGID_33_);}
	.st87{fill:none;}
	.st88{fill:url(#SVGID_34_);}
	.st89{fill:#232323;stroke:#4F4F4F;stroke-width:0.5;stroke-miterlimit:10;}
	.st90{fill:url(#SVGID_35_);}
	.st91{fill:url(#SVGID_36_);}
	.st92{fill:url(#SVGID_37_);}
	.st93{fill:url(#SVGID_38_);}
	.st94{fill:url(#SVGID_39_);}
	.st95{fill:url(#SVGID_40_);}
	.st96{fill:url(#SVGID_41_);}
	.st97{fill:url(#SVGID_42_);}
	.st98{fill:url(#SVGID_43_);}
	.st99{fill:url(#SVGID_44_);}
	.st100{fill:none;stroke:url(#SVGID_45_);stroke-width:0.5;stroke-miterlimit:10;}
	.st101{fill:url(#SVGID_46_);}
	.st102{opacity:0.4;}
	.st103{fill:url(#SVGID_47_);}
</style>
<g>
	<defs>
		<path id="SVGID_1_" d="M1360.1,47.4v1158.8c-50,49.7-380.2,31.8-466.6-51.7C844.6,1107.2,767.7,968.7,707,909
			c-5.6-5.5-11.9-10.3-16.7-15.1c-1.1-1.1-2.9-2.5-4-3.4c-62.4-49-195.1-100.9-334.3-80.4C208.7,831.2,109.2,693.3,88.9,604.9
			C45.8,416.7,456.1,120.4,634.8,47.4C802.7-21.2,1360.1,47.4,1360.1,47.4z"/>
	</defs>
	<clipPath id="SVGID_2_">
		<use xlink:href="#SVGID_1_"  style="overflow:visible;"/>
	</clipPath>
	<path class="st0" d="M1182.4,449c-0.1,0.4,0.9,1.1,0.8,1.3c-0.1,0.1-0.9,0.3-1.2,0.1c-0.4-0.3-1.4-1.9-1.1-2c0.5-0.1,0.2,0,0.7-0.1
		c0.1,0,0.3-0.1,0.3-0.1c0-0.1,1.4,0.7,1.3,1C1183.2,449.4,1182.4,448.9,1182.4,449z"/>
	<path class="st0" d="M1189.9,449.2c0.1,0.4-0.9,1.1-0.8,1.3c0.1,0.1,0.9,0.3,1.2,0.1c0.4-0.3,1.4-1.9,1.1-1.9
		c-0.5-0.1-0.2-0.1-0.7-0.1c-0.1,0-0.4-0.1-0.4-0.1c0-0.1-1.4,0.6-1.3,0.9C1189.1,449.5,1189.9,449,1189.9,449.2z"/>
	<g class="st1">
		
			<ellipse transform="matrix(0.9997 -2.466470e-02 2.466470e-02 0.9997 -10.1909 29.4303)" class="st2" cx="1187.9" cy="427.8" rx="0.3" ry="0.6"/>
		<path class="st2" d="M1187.1,433.2c-0.4-0.5-0.3-2.2-0.3-2.2s0.9-1,1.1-2.8c0.1-0.4,0.1-3.9-3-4c-3,0-2.8,3.6-2.8,3.8
			c0.1,2,1.4,2.9,1.4,2.9s0.4,2-0.3,2.3l0,1.3l3.6-0.1L1187.1,433.2z"/>
		<path class="st2" d="M1185.4,452.9c0,0-2.3,4.2-2.2,6.5c0.1,2.9,0.3,12.5,0.3,12.5l-2,0c0,0-0.9-9.1-1.2-12.5
			c-0.2-3.1,2-12.2,2-12.2l7.7-0.2c0,0-0.2,3.8-0.3,5.3c-0.1,2.1,0.1,4.3,0,7c-0.2,5.6-0.5,12.3-0.5,12.3l-1.9,0l-1.1-12.3
			L1185.4,452.9z"/>
		<path class="st2" d="M1191,448.6c0,0,0.4,0.1,0.4,0.1c0.2-0.7,1.8-6.6,1.8-7c0-0.6-1.6-6-2.7-7.3c-1.3-1.4-3.5-1.2-3.5-1.2
			s-1.6,1.5-3.8,0.1c-0.6-0.1-1.9,0-3.2,2c-1.3,2-1.4,6.4-1.4,7.3c0,0.9,2.2,6,2.2,6l1.2-0.2l-1.4-5.9c0,0,0.8-6.1,1.1-5
			c0.5,1.8-0.5,3.8,0.6,9.8c0,0,7.3,0.9,7.7-0.2c0.5-1.1-0.6-1.7-0.6-5.6c0-1.1-0.3-4.7,0.2-4.4c0.4,0.2,1.5,4.4,1.5,4.8
			c-0.1,3.1-0.9,6.7-0.9,6.6"/>
		<path class="st2" d="M1186.7,431c-1.6,1.1-2.1,0.9-3.2,0l0.1,0.7l0,0.6l3.1-0.1l0-0.6L1186.7,431z"/>
		<path class="st2" d="M1185,446.8"/>
		<path class="st2" d="M1182,427.3c0.2,0.1,0.7-0.4,1-0.4c0.5,0,0.9-0.3,1.3-0.7c0.5-0.5,2.1-0.6,1.9-1.3c0.5,0.3,0.8,1.1,1.2,1.5
			c0.3,0.4,0,0.8,0.6,0.7c0.1-0.1-0.2-0.8-0.2-0.9c0.1-0.3,0.1-0.7-0.1-1c-0.2-0.3-0.6-0.5-1-0.7c-0.5-0.2-1-0.4-1.6-0.6
			c-0.4-0.1-0.8-0.2-1.2-0.2c-0.5,0.1-0.9,0.4-1.2,0.8c-0.1,0.2-0.2,0.4-0.3,0.6C1182.2,425.7,1181.9,426.8,1182,427.3z"/>
		
			<ellipse transform="matrix(0.9997 -2.466470e-02 2.466470e-02 0.9997 -10.1963 29.285)" class="st2" cx="1182" cy="428" rx="0.3" ry="0.6"/>
		<path class="st2" d="M1187.5,471.8l1.5,0c0,0,1.4,0.1,1.8,1c0.3,0.8-3.3,0.6-3.3,0.6L1187.5,471.8z"/>
		<path class="st2" d="M1183.5,471.8l0,1.7l-2.8,0.1c0,0-0.6,0-0.7-0.2c-0.2-0.6,1.8-1.5,1.8-1.5L1183.5,471.8z"/>
	</g>
	<path class="st3" d="M1181.6,450.5l0.5-2.4c0,0,0.4,0.9,0.3,1.4C1182.3,449.9,1181.6,450.5,1181.6,450.5z"/>
	<path class="st3" d="M1189.8,450.9l0.1-2.5c0,0-0.6,0.8-0.6,1.2C1189.3,450.1,1189.8,450.9,1189.8,450.9z"/>
	<path class="st3" d="M1186.3,449.9c0.3-0.9-1.2,3.5-1.2,3.5s-1,1.9-1.6,3.7c-0.1,0.3-0.4,1.3-0.4,1.3l-0.1,0.5l0.3,9.3
		c0,0-0.8-5.7-1.4-9.2C1181.8,457.4,1185.3,452.9,1186.3,449.9z"/>
	<path class="st3" d="M1189.3,438.5c0,0.5,0,2,0.1,3.3c0.1,1.8,0.3,2.8,0.7,4.2c0.1,0.3,0.1,0.3,0.1,0.7c0,0.2,0,0-0.1,0.3
		c0,0,0,0.1,0,0.2c-0.1,0.5-0.1,1.3-0.2,1.9c0,1.3-0.1,0.8-0.1,2.1c-0.1,3,0,6.1-0.1,8.6c-0.1,3.8-0.3,6.7-0.3,7.6
		c-1.6-3.7-0.7-7.3-0.5-11.6c0.1-4-0.5-6.3-2.5-9.7c-0.4-0.7-1.1-1.3-0.3-3.3"/>
	<linearGradient id="SVGID_3_" gradientUnits="userSpaceOnUse" x1="625.6285" y1="1058.0525" x2="1155.6285" y2="30.0525">
		<stop  offset="0" style="stop-color:#3D619B"/>
		<stop  offset="0.2056" style="stop-color:#8559A5"/>
		<stop  offset="1" style="stop-color:#133875"/>
	</linearGradient>
	<path class="st4" d="M1360.1,47.4v1158.8c-50,49.7-380.2,31.8-466.6-51.7C844.6,1107.2,767.7,968.7,707,909
		c-5.6-5.5-11.9-10.3-16.7-15.1c-1.1-1.1-2.9-2.5-4-3.4c-62.4-49-195.1-100.9-334.3-80.4C208.7,831.2,109.2,693.3,88.9,604.9
		C45.8,416.7,456.1,120.4,634.8,47.4C802.7-21.2,1360.1,47.4,1360.1,47.4z"/>
	<path class="st5" d="M1360.1,650.1v556.1c-50,49.7-380.2,31.8-466.6-51.7C844.6,1107.2,767.7,968.7,707,909
		c-5.6-5.5-11.9-10.3-16.7-15.1c-1.1-1.1-2.9-2.5-4-3.4c-62.4-49-195.1-100.9-334.3-80.4c-79,11.6-144.7-25-191.2-75.1
		c235.1,3.1,470.5-8.8,704.1-35.4C1029.8,680.7,1194.6,654.5,1360.1,650.1z"/>
	<circle class="st6" cx="591.5" cy="73.5" r="6"/>
	<circle class="st6" cx="761.1" cy="126.4" r="3"/>
	<circle class="st6" cx="906.9" cy="135.5" r="4.8"/>
	<circle class="st6" cx="336.1" cy="318.7" r="3.8"/>
	<circle class="st6" cx="1129.6" cy="437.6" r="2.9"/>
	<circle class="st6" cx="450.7" cy="224.8" r="4.8"/>
	<circle class="st6" cx="886.6" cy="22.1" r="5.2"/>
	<circle class="st6" cx="1045.3" cy="262.3" r="2.5"/>
	<circle class="st6" cx="859.2" cy="422.2" r="4.1"/>
	<circle class="st6" cx="1326.2" cy="306.1" r="1"/>
	<circle class="st6" cx="1144.2" cy="325.3" r="2.1"/>
	<circle class="st6" cx="1313.1" cy="445.9" r="3"/>
	<circle class="st6" cx="934.5" cy="347.6" r="3"/>
	<circle class="st6" cx="1171.7" cy="479.6" r="3"/>
	<circle class="st6" cx="862.3" cy="280.5" r="2"/>
	<linearGradient id="SVGID_4_" gradientUnits="userSpaceOnUse" x1="118.3863" y1="633.0972" x2="1296.4865" y2="633.0972">
		<stop  offset="0" style="stop-color:#8559A5"/>
		<stop  offset="0.9963" style="stop-color:#133875"/>
	</linearGradient>
	<polygon class="st7" points="1296.5,606.6 988.7,398.2 118.4,868 1292.6,722.3 	"/>
	<path class="st8" d="M950.3,997l26.7-5.7l23.1-5v13.3l3.6-29.5l127-33.5l140.5-90.2l20,1.8l9.9-26l59.1-30.2l0-46.3
		c5.2,16.8-306.3,127.5-308.1,122.4c0,0-205.9,140.9-195.2,143.9l-2.3,25.9"/>
	<path class="st9" d="M1282.1,596.9l-163.9,20.4c-1.6-1.5-3.1-3.1-4.6-4.7c-4.1-4.3-8.2-9.1-9.2-14.9c-0.5-2.8-0.3-5.7-1.3-8.3
		c-2.2-5.3-8.6-7.2-13.9-9.3c-12.8-5.1-23.4-15.5-28.8-28.2c-1.4-3.3-2.5-6.8-4.5-9.7c-3.9-5.7-10.5-8.6-16.5-11.9
		c-10.6-5.8-20.8-15-22-27c-0.5-5,0.7-10.2-0.8-15c-2-6.5-8.3-10.6-13.6-15c-5.3-4.4-10.3-10.9-8.3-17.5c2.9-9.5,19.1-14,16-23.5
		c-1.1-3.3-4.4-5.3-7.4-7.1c-10.5-6-20.9-11.9-31.4-17.9l16.8-9.1L1282.1,596.9z"/>
	<linearGradient id="SVGID_5_" gradientUnits="userSpaceOnUse" x1="-586.639" y1="568.4546" x2="954.6818" y2="568.4546">
		<stop  offset="0" style="stop-color:#3D619B"/>
		<stop  offset="1" style="stop-color:#133875"/>
	</linearGradient>
	<polygon class="st10" points="884.3,540 499.9,316.4 -586.6,820.5 954.7,798.7 	"/>
	<path class="st9" d="M912.2,642.7l-184.3,23.5c-31.6-26.9-60.2-63.9-56.1-105c0.5-4.6,1.3-9.6-0.8-13.7c-1.9-3.8-5.7-6.1-9.3-8.3
		c-26.6-16-51.5-35-74-56.5c-14.9-14.3-29.8-33.8-24.1-53.6c1.7-5.9,5.1-11.4,4.8-17.5c-0.4-7.4-6.3-13.2-11.6-18.4
		c-23-22.5-43-47.9-59.5-75.5l2.6-1.2L884.3,540L912.2,642.7z"/>
	<path class="st11" d="M350.3,739.2c0,0,206.1-386.9,422.1-260.3c137.7,80.7,346.8,164.6,346.8,164.6"/>
	<path class="st12" d="M91.2,535.3c4.9-54.4,110.7-182.8,114.8-181.6l130.7,154.5l9.5,205l-186.6,23.3
		c-5.5,2.7-67.6-92.5-70.7-131.7c-0.7-9-3.5-20.5-3.2-33C86,558.2,90.4,544.3,91.2,535.3z"/>
	<polygon class="st6" points="295.5,459.5 462.9,508.8 229,330.2 206,353.6 	"/>
	<path class="st13" d="M429,563.1c0,0,104.1-48,140.4-45.9c33.5,1.9,83.1,50.3,116,55.8c30.5,5,89.3-32.4,119.9-27.9
		c31.6,4.7,71.7,59.9,103.7,62.6c20.4,1.7,54.3-31.1,74.4-28.1c24.6,3.7,64,46.5,64,46.5l-612.5,74.8L429,563.1z"/>
	<polygon class="st14" points="453,513.1 473.9,697.4 306.9,718.6 295.5,459.5 462.9,508.8 	"/>
	<path class="st15" d="M810.9,1045.4l46.8-38l32.6,19.6l72.2-68.3l42.6,0.4l-16-22.4l28.3-6.2l53.2-37.7l69.6-25.4l219.8-112.9
		V587.2L159.6,736.5c0.4,3.4,25.3,48.1,86.2,71.1c13.5,5.1,36.8,11,61,11.5c23.3,0.5,43.1-3.6,70-4.9c23.1-1.2,64-0.8,85.5,0
		c51.1,1.9,95.2,14.2,130.5,28.2c14.2,5.6,25.9,12.7,36.5,15.7C700,877.9,803.6,1032.9,810.9,1045.4z"/>
	<line class="st16" x1="545" y1="583.7" x2="548.1" y2="644.5"/>
	<path class="st0" d="M543.1,617.5c13.2-1.7,33-6.6,36.5-22.4c3.5-15.5-3.8-44.9-9.2-74.9c-5.1-27.9-8.1-56.6-15-68.9
		c-1.5-2.7-5.7-2.4-8.4-2.2c-4.1,0.3-10.1,3.1-12.2,7.5c-10.1,20.6-3.2,47.9-8.5,71.1c-2.2,9.7-23,41.7-11.5,70.8
		C519.5,610.1,532.8,618.8,543.1,617.5z"/>
	<g class="st1">
		<line class="st17" x1="500.4" y1="600.6" x2="502.6" y2="644.2"/>
		<path class="st2" d="M499,624.9c9.4-1,23.6-3.8,26.2-12.9c2.5-9-2.7-25.9-6.6-43.2c-3.6-16.1-10.5-110.4-14.7-117.9
			c-2.9-5.1-11.6-6.5-13.5-6.4c-2.9,0.2-7.2,1.8-8.8,4.3c-7.2,11.9,13.8,86-0.7,123.5c-2.1,5.4-10.4,24.9-2.1,41.7
			C482.1,620.6,491.6,625.6,499,624.9z"/>
	</g>
	<g class="st1">
		<line class="st17" x1="1310.4" y1="567" x2="1309.2" y2="591.3"/>
		<path class="st2" d="M1311.2,580.5c-5.2-0.5-13.1-2.1-14.5-7.2c-1.4-5-4.6-18.1-2.4-27.7c2-8.9,9.3-14.5,12.1-18.4
			c0.6-0.9,2.3-0.8,3.3-0.7c1.6,0.1,4,1,4.9,2.4c4,6.6,1.3,15.3,3.4,22.8c0.9,3.1,9.2,13.4,4.6,22.7
			C1320.6,578.1,1315.3,580.9,1311.2,580.5z"/>
	</g>
	<g class="st1">
		<line class="st17" x1="927.4" y1="579.5" x2="924.4" y2="639.6"/>
		<path class="st2" d="M929.3,612.9c-13-1.3-32.6-5.2-36.1-17.8c-3.4-12.4-11.4-44.9-6-68.7c5-22.2,0.4-33.1,9.1-41.3
			c10.1-9.5,26.5-6.3,29.2-6.1c4,0.3,10,2.5,12.1,5.9c10,16.4,3.2,38.1,8.4,56.6c2.2,7.7,12.9,28.3,1.5,51.5
			C942.8,602.1,939.6,614,929.3,612.9z"/>
	</g>
	<g class="st1">
		<line class="st17" x1="1196.6" y1="577.9" x2="1195.2" y2="605.4"/>
		<path class="st2" d="M1197.5,593.2c-5.9-0.9-14.8-3.4-16.4-11.5c-1.5-8-5.2-29-2.7-44.5c2.3-14.4,10.5-23.2,13.6-29.6
			c0.7-1.4,2.5-1.2,3.7-1.1c1.8,0.2,4.5,1.6,5.5,3.8c4.5,10.6,5.2,13.8,7.5,25.8c1,5,6.6,32.3,1.4,47.3
			C1208,589.4,1202.1,593.9,1197.5,593.2z"/>
	</g>
	<g class="st1">
		<line class="st17" x1="1239.2" y1="574.9" x2="1237.9" y2="600"/>
		<path class="st2" d="M1239.9,588.8c-5.4-0.8-13.7-3.1-15.1-10.6c-1.4-7.3-4.8-26.6-2.5-40.7c2.1-13.2,9.7-21.3,12.5-27.1
			c0.6-1.3,2.4-1.1,3.5-1c1.7,0.2,4.2,1.5,5.1,3.5c4.2,9.7,4.8,12.6,6.9,23.6c0.9,4.6,6.1,29.6,1.3,43.3
			C1249.7,585.3,1244.2,589.5,1239.9,588.8z"/>
		<path class="st18" d="M1253.2,572.7c-0.3,2.6-0.8,5-1.6,7.2c-1.9,5.5-7.4,9.6-11.7,9c-5.4-0.8-13.7-3.1-15.1-10.6
			c-0.7-3.6-1.9-10.2-2.6-17.5c5.1,1.3,10.3,1.8,15.6,1.5c0.7,0,1.6-0.1,2.1,0.4c0.3,0.3,0.6,0.7,0.7,1.1c0.9,2.2,1.2,4.9,3.1,6.4
			c1,0.8,2.3,1.1,3.5,1.3C1249.2,571.9,1251.2,572.3,1253.2,572.7z"/>
	</g>
	<g class="st1">
		<line class="st17" x1="1276" y1="572.9" x2="1274.9" y2="595.1"/>
		<path class="st2" d="M1276.7,585.2c-4.8-0.7-12.1-2.7-13.4-9.3c-1.3-6.5-4.2-23.5-2.2-36c1.9-11.6,8.6-18.8,11.1-23.9
			c0.6-1.1,2.1-1,3.1-0.9c1.5,0.1,3.7,1.3,4.5,3.1c3.7,8.6,4.2,11.2,6.1,20.8c0.8,4,5.4,26.1,1.2,38.3
			C1285.3,582.1,1280.5,585.8,1276.7,585.2z"/>
	</g>
	<g class="st1">
		<line class="st17" x1="1049.3" y1="541.5" x2="1048.6" y2="556.9"/>
		<path class="st2" d="M1049.8,550c-3.3-0.5-8.4-1.9-9.3-6.5c-0.9-4.5-2.9-16.3-1.5-25c1.3-8.1,5.9-13,7.7-16.6
			c0.4-0.8,1.4-0.7,2.1-0.6c1,0.1,2.6,0.9,3.1,2.2c2.6,5.9,2.9,7.8,4.3,14.5c0.6,2.8,3.7,18.1,0.8,26.6
			C1055.8,547.9,1052.5,550.4,1049.8,550z"/>
	</g>
	<g class="st1">
		<line class="st17" x1="1071.8" y1="556.7" x2="1071.1" y2="569.9"/>
		<path class="st2" d="M1072.2,564c-2.9-0.4-7.2-1.6-7.9-5.6c-0.8-3.8-2.5-14-1.3-21.4c1.1-6.9,5.1-11.2,6.6-14.2
			c0.3-0.7,1.2-0.6,1.8-0.5c0.9,0.1,2.2,0.8,2.7,1.8c2.2,5.1,2.5,6.6,3.7,12.4c0.5,2.4,3.2,15.6,0.7,22.8
			C1077.4,562.2,1074.5,564.3,1072.2,564z"/>
	</g>
	<g class="st1">
		<line class="st17" x1="850.3" y1="521.5" x2="849.6" y2="535.4"/>
		<path class="st2" d="M850.7,529.2c-3-0.4-7.5-1.7-8.3-5.8c-0.8-4-2.6-14.7-1.4-22.5c1.2-7.3,5.3-11.7,6.9-14.9
			c0.4-0.7,1.3-0.6,1.9-0.6c0.9,0.1,2.3,0.8,2.8,1.9c2.3,5.3,2.6,7,3.8,13c0.5,2.5,3.4,16.3,0.7,23.9
			C856.1,527.3,853.1,529.6,850.7,529.2z"/>
	</g>
	<g class="st1">
		<line class="st17" x1="826.6" y1="518.1" x2="825.8" y2="533.5"/>
		<path class="st2" d="M827.1,526.7c-3.3-0.5-8.4-1.9-9.3-6.5c-0.9-4.5-2.9-16.3-1.5-25c1.3-8.1,5.9-13,7.7-16.6
			c0.4-0.8,1.4-0.7,2.1-0.6c1,0.1,2.6,0.9,3.1,2.2c2.6,5.9,2.9,7.8,4.3,14.5c0.6,2.8,3.7,18.1,0.8,26.6
			C833.1,524.5,829.7,527.1,827.1,526.7z"/>
	</g>
	<path class="st19" d="M483,482.2c2.5,0.2,2.8-11.8,5.4-11.5c4.5,0.5,8.4,33.6,8.4,33.6s-0.7-33.1,1.4-28.4
		c2.4,5.3,7.9,29.5,8.9,24.2c0.7-3.3-2.7-37.5-2.7-37.5l2.1,5.3l0.2-3.4c0,0-0.7-10.9-2.8-13.6c-2.2-2.9-9.3-6.5-12.9-6.4
		c-2.7,0-8.2,2.8-9.8,5.1c-2,3-1,14.2-1,14.2S481.4,482.1,483,482.2z"/>
	<path class="st20" d="M819.2,495.7l3.8-2.8c0,0,1.9,7.2,3.6,6.9c0.9-0.2,0.7-14.5,0.7-14.5l5.6,6.3l-1.3-5.8l-1.7-4.2
		c0,0-0.6-1.7-1-2.1c-0.3-0.3-0.7-0.8-1.3-1.1c-0.5-0.3-1.1-0.4-1.5-0.5c-0.3,0-0.8-0.1-1.2,0c-0.4,0.1-0.8,0.4-0.9,0.6
		c-0.3,0.7-0.9,1.6-1.5,2.7c-0.8,1.4-1.8,2.8-2.3,3.7c-0.6,1.1-2.2,4.5-2.2,4.5L819.2,495.7z"/>
	<path class="st20" d="M842.6,498.9l2.2-3.7c0,0,2,6.9,3.9,6.9c2.4-0.1,4.4-8.6,4.4-8.6l3.2,6c0,0-1.2-5.2-1.6-6.9
		c-0.4-1.6-1.5-4.8-2.5-6c-0.6-0.7-2.8-1.7-3.8-1.1c-0.6,0.4-1.1,1.9-2.1,3.3c-1.5,2.1-2.7,4.6-2.7,4.6L842.6,498.9z"/>
	<path class="st21" d="M1065.4,530.9c0,0,2.9,1.9,5.5,1.9c2.2,0,5.4-2.2,5.4-2.2s-0.8-2.5-1.1-3.4c-0.3-0.8-1.3-3.1-1.3-3.1
		s-0.4-0.7-1.1-1.3c-0.5-0.3-1.2-0.5-1.5-0.6c-0.4-0.1-1.5,0-1.5,0s-0.8,2-1.3,2.5c-1.1,1.2-3.6,6.1-3.6,6.1L1065.4,530.9z"/>
	<path class="st22" d="M943.3,601.6c-3.1,6.5-6.8,12.1-14,11.3c-13-1.3-32.6-5.2-36.1-17.8c-3.4-12.4-11.4-44.9-6-68.8
		c4.1-18,1.8-28.6,5.4-36.3c1.8,2.8,3.8,5.4,6.1,7.8c2.1,2.3,4.5,4.5,5.5,7.5c1.9,6.2-3.2,12.6-2.9,19.1c0.4,9.2,10.7,14.6,14.4,23
		c1.4,3.1,1.8,6.5,2.4,9.9c3,15.3,11.4,29.1,21.8,40.6C941,599.1,942.2,600.4,943.3,601.6z"/>
	<g class="st1">
		<path class="st2" d="M988.8,608.8c10.4-1.1,26.2-4.2,29-14.3c2.7-9.9,9.2-36,4.8-55.1c-4-17.8-18.5-28.8-24-36.6
			c-1.2-1.7-4.5-1.5-6.6-1.4c-3.2,0.2-8,2-9.7,4.8c-8,13.1-2.6,30.5-6.7,45.3c-1.7,6.2-18.3,26.6-9.1,45.2
			C970,604.1,980.5,609.7,988.8,608.8z"/>
		<line class="st17" x1="990.3" y1="582" x2="992.7" y2="630.2"/>
		<g>
			<line class="st17" x1="1136.2" y1="572.2" x2="1138.2" y2="612.5"/>
			<path class="st2" d="M1134.9,594.6c8.7-0.9,21.8-3.5,24.2-11.9c2.3-8.3,7.6-30,4-46c-3.4-14.9-15.5-24-20-30.6
				c-1-1.5-3.8-1.3-5.5-1.2c-2.7,0.2-6.7,1.7-8.1,4c-3.2,5.2-3.8,11.1-4,17.3c-0.2,6.9,0.2,14-1.6,20.5c-1.5,5.1-15.2,22.2-7.6,37.7
				C1119.3,590.7,1128.1,595.3,1134.9,594.6z"/>
		</g>
		<path class="st23" d="M1131,517c0.9-3.9,0.8,15.3,4.8,15.3c3.5,0-0.5-12.2,2.7-13.6c2-0.9,2.9,7.8,4.3,14.5
			c0.6,3,1.4-10.9,4.4-11.4c4.4-0.7,4.9,15.8,9.3,15.1c2.6-0.4,2.3-11.3,2.3-11.3s-1.4-2.2-2.1-3.3c-2.6-4.1-12-14.3-12-14.3
			s-1-1.6-1.5-1.9c-0.6-0.5-0.8-0.8-1.6-1c-3-0.8-7.1,0.1-8.8,1.2c-0.9,0.6-2.1,1.2-3,2.2c-1.2,1.5-2,3.5-2.3,4.8
			c-1.2,4.7-1.6,5.3-1.9,9c-0.2,2.2,0.1,5.8-0.1,11.7c-0.2,5.8-1.1,10.9-1.1,10.9S1129.6,522.7,1131,517z"/>
	</g>
	<path class="st20" d="M1184.6,524.9c1.9,1.1,5.8-6.8,5.8-6.8l2.1,3.6c0,0,1.1-4.7,2.3-4.4c3.7,0.7,1.2,14.7,4.9,14.1
		c3.5-0.5,0.3-14.1,0.3-14.1s2.7,11.2,5.5,10.3c2.5-0.8-1.6-10.3-1.6-10.3s-2-6.2-3.3-7.9c-0.7-0.8-2.4-2.2-3.4-2.6
		c-0.9-0.3-2.7-0.7-3.6-0.5c-0.5,0.1-1.5,0.8-1.8,1.2c-1.1,1.3-3.5,5.9-3.5,5.9S1182,523.5,1184.6,524.9z"/>
	<path class="st24" d="M1229.9,523.1c1.9,1.1,3.4-1.8,3.4-1.8l1.1,18.3c0,0,2.1-19.3,3.3-19.1c3.7,0.7,4.9,14.1,4.9,14.1l0.3-14.1
		c0,0,3,7.5,4,4.8c0.8-2.1-0.7-4.6-0.7-4.6s-2.3-6-3.3-7.9c-0.5-0.9-1.8-2.4-2.8-2.7c-0.9-0.3-2.7-0.4-3.6-0.5
		c-0.6-0.1-1.7,0.5-1.8,1.2c-0.4,1.6-3.6,6-3.5,5.9C1231.2,516.6,1227.3,521.6,1229.9,523.1z"/>
	<path class="st21" d="M1262.1,539.3c1.9,1.1,8.4-12.5,8.4-12.5s-3.5,18.2,1.1,18.3c4.8,0.1,2.1-19.3,3.3-19.1
		c3.7,0.7,1.2,14.2,4.9,14.1c3.5-0.1,0.3-14.1,0.3-14.1s4.9,7.5,4,4.8c-0.7-2.3-1.3-4.6-1.3-4.6s-1.9-5.8-3-7.7
		c-0.5-0.9-1.7-2.3-2.7-2.7c-0.2-0.1-0.5-0.2-0.8-0.4c-0.3-0.1-0.7-0.2-1.1-0.2c-0.5-0.1-0.9-0.1-1.3,0c-0.2,0-0.4,0.1-0.6,0.1
		c-0.2,0-0.5,0.2-0.8,0.4c-0.2,0.2-0.4,0.5-0.5,0.8c-0.7,1.4-3.8,5.9-3.7,5.9C1268.3,522.1,1259.5,537.9,1262.1,539.3z"/>
	<path class="st21" d="M1305.2,538.7c5.1,0.5,0,10.9,3.4,11.5c4.4,0.7,8.4-3.7,8.4-3.7s-0.1-10.4-1-13.7c-0.3-1.2-1.2-3.5-2.1-4.4
		c-0.5-0.5-1.8-1.3-2.5-1.4c-1-0.3-3.1-0.7-4.1-0.3c-1.5,0.6-3.5,3.6-4.7,4.8c-10.1,10.6-9.3,19.5-9.3,19.5
		S1303.3,538.5,1305.2,538.7z"/>
	<path class="st22" d="M1011.7,602.2c-6.3,4.2-15.8,5.9-22.9,6.6c-8.2,0.8-18.7-4.8-22.4-12.2c-9.2-18.6,7.4-39,9.1-45.2
		c2-7.2,1.8-15,1.9-22.7c6.3,5.2,12.6,10.3,18.9,15.5c0.5,0.4,0.9,0.8,1.1,1.3c0.3,0.9-0.2,1.9-0.7,2.7
		c-4.9,7.4-12.6,14.8-10.9,23.5c1,5.3,5.3,9.3,9.3,13C1000.9,590.4,1006.4,596.2,1011.7,602.2z"/>
	<path class="st22" d="M1143.7,593.2c-3,0.7-6.1,1.1-8.7,1.4c-6.9,0.7-15.6-4-18.7-10.1c-7.6-15.5,6.1-32.6,7.6-37.7
		c1.8-6.5,6.3-26.6,6.3-26.6c2.1,1.8,4.1,9.9,3.6,11.5c-1.2,4.4-0.5,9.3,1.9,13.1c1,1.6,2.2,3,2.6,4.8c0.5,2.2-0.3,4.4-0.8,6.6
		C1134.7,568.6,1140.3,580.8,1143.7,593.2z"/>
	<g class="st22">
		<line x1="1196.5" y1="577.9" x2="1195.1" y2="605.4"/>
		<path d="M1208,587.3c-2.8,3.9-7.1,6.4-10.7,5.8c-0.5-0.1-1.1-0.2-1.6-0.3c-5.8-1.1-13.5-3.8-14.9-11.3c-0.9-4.7-2.6-13.8-3.3-23.7
			c4.6,2.3,9.2,4.6,13.8,6.8c0.4,0.2,0.8,0.4,1.1,0.7c1.4,1.4,0,3.8,0.4,5.8c0.8,3.2,5.6,2.9,8.2,5c2.1,1.8,2.2,5,3.5,7.5
			C1205.4,585.2,1206.6,586.4,1208,587.3z"/>
	</g>
	<rect x="157.6" y="513.1" class="st25" width="98.7" height="55"/>
	<polygon class="st25" points="318.2,573.5 375.7,588.3 383.1,629 327,621.7 	"/>
	<polygon class="st25" points="471.1,697.8 468.8,633.1 489.3,633.1 485.4,696 	"/>
	<polygon class="st25" points="500.8,694.1 498.5,636.8 519,636.8 515.1,692.3 	"/>
	<polygon class="st25" points="531.5,690.2 529.2,639.1 549.7,639.1 545.8,688.5 	"/>
	<polygon class="st25" points="561,686.6 558.8,641.3 579.3,641.3 575.3,684.8 	"/>
	<polygon class="st25" points="592.2,682.7 589.8,642.7 610.3,642.7 606.3,680.9 	"/>
	<polygon class="st25" points="620.3,679.2 617.8,643.9 638.3,643.9 634.2,677.5 	"/>
	<polygon class="st25" points="645.3,676.1 642.8,645.1 663.3,645.1 659.2,674.4 	"/>
	<polygon class="st25" points="676.4,672.2 673.8,646.3 694.3,646.3 690,670.5 	"/>
	<polygon class="st25" points="704.2,668.7 701.8,649.3 722.3,649.3 718,667.1 	"/>
	<path class="st13" d="M84,556.8c0,0,107.6-9.3,137.7,7.4c17.3,9.6,25.9,44.4,42,50.9c28.1,11.3,99.2-9.8,129.6-5.4
		c20,2.9,41.9,34.7,61.3,40c20.3,5.6,63.4,13.7,81,14.4c37.3,1.4,91.3,14.4,91.3,14.4l-467.3,58.1c-6,2.9-56.1-70.9-63.8-96.6
		c-2.9-9.8-9.1-26.2-10-42.4C84.8,578.2,82.4,559.5,84,556.8z"/>
	<line class="st26" x1="157.6" y1="524.8" x2="256.3" y2="524.8"/>
	<line class="st26" x1="207" y1="513.1" x2="207" y2="524.8"/>
	<polygon class="st13" points="312.7,506 370.2,520.8 377.6,561.5 321.5,554.2 	"/>
	<path class="st27" d="M438.4,533.8l-50.8-13l7.8,42.6l49.6,6.5L438.4,533.8z"/>
	<path class="st28" d="M859.7,581.6c0.5,0,0.9,0,1.4,0c3.6,3.3,3,7.7,3.3,11.9c0.4,6.6,0,13.3-0.6,19.9c-1.2,4.8-2.3,9.6-5.9,13.5
		c-2,2.1-3.9,4.5-3.6,7.8c0.1,1.2,0.4,2.2,1.6,2.7c1.3,0.5,2.4,0.2,3.3-0.7c0.5-0.5,0.9-1,1.2-1.6c1.9-3,3.7-6.1,5.9-8.8
		c1.3-1.7,2.4-4,5.2-3.8c-0.7,5.7-1.5,11.5-3.8,17.1c-1.4-1.7-1.3-4-2.9-5.6c-0.3,3.2,3.1,5.5,1.6,8.5c-1.3,2.7-2.9,5.3-5.8,6.8
		c-0.3,0-0.7,0.1-1,0.1c-2.8,0.4-5.7,0.3-8.6,0.2c-1.2-0.5-2.4-0.2-3.6-0.3c-1.2-0.4-2.2-1-3.1-1.8c-0.7-1-1.1-2.1-1.4-3.3
		c-1.4-5.8-1.4-11.5-1-17.4c0.5-6.3,1.2-12.5,2.8-18.7c0.6-2.3,1-4.6,1.8-6.8c2.5-7,4.9-13.9,10.6-19.1c0.2-0.2,0-0.4-0.2-0.5
		c0.5,0,0.9,0,1.4,0c0.2,0.8-0.3,1.3-0.6,1.9c-3.6,5.6-6,11.7-7.5,18.1c-1.2,4.5-1.9,9-2.3,13.6c-0.8,5.4-0.4,10.9-0.7,16.5
		c-1.1-0.8-1.2-2.5-2.6-2.8c0,1,0.7,1.6,1.1,2.3c0.6,1.3,1.7,2.4,1.8,4.1c0.1,2.7,0.3,5.4,0.5,8.1c0,0.6-0.2,1.3,0.4,1.8
		c0.2,0.4,0.4,0.4,0.6,0.1c0.4,0.1,0.7,0,0.9-0.4c0.8-0.8,1.6-1.6,1.9-2.7c0.6-0.4,1.1-0.8,1.3-1.5c0.2-0.2,0.3-0.5,0.5-0.7
		c0.2-0.1,0.6-0.2,0.4-0.5c-0.2-0.3-0.5,0-0.7,0.2c-0.3,0.3-0.6,0.7-0.9,1c-0.5,0.3-0.8,0.7-1,1.3c-0.8,0.8-1.6,1.5-1.9,2.6
		c-1.1,0.2-0.5-0.9-0.9-1.1c-0.7-9.4-0.8-18.7,0.1-28.1c0.9-4.2,0.2-8.9,3.5-12.5c1.3-1,2.6-2,3.5-4.2c-1.8,1.3-2.9,2.4-3.8,3.9
		c-0.4,0-0.9,0.2-1.2-0.3c1.1-3.2,2.3-6.5,3.4-9.7C855.4,588.5,857.8,585.2,859.7,581.6z M857,610.3c-1.3,1.1-2.9,2-3.7,4.3
		C855.1,613.3,856.4,612.1,857,610.3z M849.5,618.6c1.4-0.7,2.6-1.7,3.5-3.7C851.1,616,850.2,617.2,849.5,618.6z M859.3,594.5
		c-1.1,0.7-2.3,1.4-2.7,3.2C858,596.8,858.9,595.9,859.3,594.5z"/>
	<path class="st0" d="M875.8,620.1C873.7,624.5,875.8,619.9,875.8,620.1c-0.6,1.5-1.1,3.1-1.7,4.6c-0.7-0.3-0.8-1.3-1.6-1.4
		c-0.1-0.5-0.3-0.9-1-0.9c-2.8-0.2-3.9,2.1-5.2,3.8c-2.2,2.8-3.9,5.9-5.9,8.8c-0.4,0.6-0.7,1.1-1.2,1.6c-0.9,0.9-2,1.2-3.3,0.7
		c-1.3-0.5-1.5-1.5-1.6-2.7c-0.2-3.3,1.6-5.7,3.6-7.8c3.6-3.8,4.7-8.6,5.9-13.5c1.5-2,2.9-4.2,4.5-6.1c2.6-3.2,4.3-2.9,5.9,0.9
		c0.7,1.7,1.7,3.8,2,5.6c0.1,0.6,0.1,1.3,0.3,2.4"/>
	<path class="st0" d="M829.3,623.8c2.4-1.1,4.6-0.2,6.5,1.1c1.4,0.9,2.7,2.1,4.2,3.2c0.5-3.2-0.2-6.1-0.9-9
		c-0.7-2.8-1.4-5.5-1.9-8.4c-0.3-1.7-0.9-3.9,1-4.9c1.9-1,3.6,0.3,5.1,1.4c0.4,0.3,0.7,0.8,1.3,0.7c-1.6,6.1-2.3,12.4-2.8,18.7
		c-0.5,5.9-0.4,11.7,1,17.4c0.3,1.2,0.7,2.3,1.4,3.3c-1.2,0.2-1.9-0.6-2.6-1.4c-4.4-5.2-8.4-10.6-11.3-16.8c-0.2-0.4,1-2,0-1.4
		C830.3,626.2,829.3,625.3,829.3,623.8z"/>
	<path class="st28" d="M872.5,623.3c0.9,0.1,0.9,1.1,1.6,1.4c0.5,2.1,1,4.2,1.6,6.3c0.1,0.3-0.6,1.1,0.1,0.5c0,2.6-0.2,5-0.2,7.6
		c-0.8-0.1,0,0-0.3,0.7c-2.1,6-6.6,8.7-12.6,9.2c2.9-2.9,4.8-6.4,6.2-10.1C870.9,633.9,871.4,628.6,872.5,623.3z"/>
	<path class="st29" d="M859.7,581.6c-1.8,3.6-4.3,6.9-5.6,10.7c-1.1,3.3-2.3,6.5-3.4,9.7c-0.1-0.2-0.3-0.3-0.4-0.5
		c1.5-6.4,3.9-12.5,7.5-18.1c0.4-0.6,0.8-1.1,0.6-1.9C858.8,581.6,859.2,581.6,859.7,581.6z"/>
	<path class="st30" d="M862.7,649.1c-0.7,0.3-1.4,0.9-2.2,0.4c0.1-0.1,0.1-0.2,0.1-0.3c2.9-1.4,4.4-4.1,5.8-6.8
		c1.5-3-1.8-5.3-1.6-8.5c1.6,1.7,1.5,3.9,2.9,5.6c2.3-5.6,3.1-11.3,3.8-17.1c0.6-0.1,0.9,0.3,1,0.9c-1,5.2-1.6,10.6-3.5,15.6
		C867.5,642.7,865.6,646.2,862.7,649.1z"/>
	<path class="st31" d="M848.7,615.2c-0.9,9.4-0.8,18.7-0.1,28.1c-0.2,0-0.4,0-0.6,0c-0.2-2.7-0.4-5.4-0.5-8.1c0-1.7-1.1-2.7-1.8-4.1
		c-0.3-0.7-1-1.3-1.1-2.3c1.5,0.4,1.5,2,2.6,2.8c0.3-5.6-0.1-11.1,0.7-16.5C848.2,615.2,848.4,615.2,848.7,615.2z"/>
	<path class="st32" d="M848.7,615.2c-0.2,0-0.5,0-0.7,0c0.4-4.6,1-9.1,2.3-13.6c0.1,0.2,0.3,0.3,0.4,0.5c0.3,0.5,0.8,0.3,1.2,0.3
		c0.1,0.1,0.2,0.2,0.3,0.3C848.9,606.3,849.6,611,848.7,615.2z"/>
	<path class="st31" d="M857,610.3c-0.7,1.7-1.9,2.9-3.7,4.3C854.1,612.3,855.7,611.4,857,610.3z"/>
	<path class="st32" d="M851.9,602.4c0.9-1.4,2-2.6,3.8-3.9c-0.8,2.1-2.2,3.2-3.5,4.2C852.1,602.6,852,602.5,851.9,602.4z"/>
	<path class="st31" d="M849.5,618.6c0.7-1.5,1.6-2.6,3.5-3.7C852.1,616.9,850.9,617.9,849.5,618.6z"/>
	<path class="st32" d="M859.3,594.5c-0.4,1.4-1.3,2.3-2.7,3.2C857,595.9,858.2,595.3,859.3,594.5z"/>
	<path class="st33" d="M849.5,644.4c0.3-1.1,1.1-1.8,1.9-2.6c0.1,0.1,0.2,0.2,0.3,0.3c-0.3,1.1-1.1,1.9-1.9,2.7
		C849.7,644.7,849.6,644.5,849.5,644.4z"/>
	<path class="st33" d="M847.9,643.3c0.2,0,0.4,0,0.6,0c0.4,0.3-0.2,1.4,0.9,1.1c0.1,0.1,0.2,0.3,0.3,0.4c-0.2,0.3-0.5,0.5-0.9,0.4
		c-0.2,0-0.4,0-0.6-0.1C847.8,644.6,847.9,643.9,847.9,643.3z"/>
	<path class="st33" d="M851.4,641.8c0.2-0.5,0.5-1,1-1.3c0.2,0,0.4,0,0.7,0.1c-0.3,0.7-0.7,1.2-1.3,1.5
		C851.6,642,851.5,641.9,851.4,641.8z"/>
	<path class="st34" d="M860.6,649.2c0,0.1,0,0.2-0.1,0.3c-0.5,0.7-0.7,0-0.9-0.2C859.9,649.2,860.3,649.2,860.6,649.2z"/>
	<path class="st35" d="M853,640.6c-0.2,0-0.4,0-0.7-0.1c0.3-0.3,0.6-0.7,0.9-1c0.1,0.1,0.2,0.2,0.3,0.3
		C853.4,640.1,853.2,640.4,853,640.6z"/>
	<path class="st35" d="M853.2,639.6c0.2-0.2,0.5-0.5,0.7-0.2c0.2,0.3-0.2,0.4-0.4,0.5C853.4,639.8,853.3,639.7,853.2,639.6z"/>
	<path class="st35" d="M848.3,645.1c0.2,0,0.4,0,0.6,0.1C848.7,645.4,848.5,645.5,848.3,645.1z"/>
	<path class="st28" d="M1049.8,576.1c0.3,0,0.7,0,1,0c2.6,2.4,2.2,5.6,2.4,8.6c0.3,4.8,0,9.6-0.4,14.4c-0.8,3.5-1.7,6.9-4.3,9.7
		c-1.4,1.5-2.8,3.3-2.6,5.6c0.1,0.9,0.3,1.6,1.2,2c0.9,0.4,1.7,0.1,2.4-0.5c0.4-0.3,0.6-0.7,0.9-1.2c1.4-2.1,2.7-4.4,4.2-6.4
		c0.9-1.2,1.8-2.9,3.8-2.7c-0.5,4.1-1.1,8.3-2.7,12.3c-1-1.2-0.9-2.9-2.1-4.1c-0.2,2.3,2.2,4,1.1,6.1c-1,1.9-2.1,3.8-4.2,4.9
		c-0.2,0-0.5,0-0.7,0.1c-2.1,0.3-4.1,0.2-6.2,0.2c-0.8-0.4-1.7-0.1-2.6-0.2c-0.8-0.3-1.6-0.7-2.3-1.3c-0.5-0.7-0.8-1.5-1-2.4
		c-1-4.2-1-8.3-0.7-12.6c0.4-4.5,0.8-9,2-13.5c0.4-1.6,0.8-3.3,1.3-4.9c1.8-5,3.6-10.1,7.7-13.8c0.2-0.2,0-0.3-0.2-0.3
		c0.3,0,0.7,0,1,0c0.1,0.5-0.2,0.9-0.5,1.3c-2.6,4-4.3,8.4-5.4,13.1c-0.9,3.2-1.4,6.5-1.6,9.8c-0.6,3.9-0.3,7.8-0.5,11.9
		c-0.8-0.6-0.8-1.8-1.9-2c0,0.7,0.5,1.1,0.8,1.7c0.5,1,1.3,1.7,1.3,2.9c0.1,1.9,0.2,3.9,0.4,5.8c0,0.5-0.1,0.9,0.3,1.3
		c0.1,0.3,0.3,0.3,0.4,0c0.3,0.1,0.5,0,0.6-0.3c0.6-0.6,1.1-1.1,1.4-1.9c0.4-0.3,0.8-0.6,1-1.1c0.1-0.2,0.2-0.4,0.4-0.5
		c0.2-0.1,0.4-0.2,0.3-0.4c-0.2-0.2-0.3,0-0.5,0.2c-0.2,0.2-0.4,0.5-0.6,0.7c-0.4,0.2-0.6,0.5-0.7,0.9c-0.6,0.5-1.1,1.1-1.4,1.9
		c-0.8,0.2-0.4-0.6-0.7-0.8c-0.5-6.8-0.5-13.5,0.1-20.3c0.7-3,0.1-6.4,2.5-9c0.9-0.7,1.9-1.5,2.5-3c-1.3,0.9-2.1,1.8-2.7,2.8
		c-0.3,0-0.7,0.1-0.9-0.2c0.8-2.3,1.7-4.7,2.5-7C1046.7,581,1048.5,578.7,1049.8,576.1z M1047.9,596.8c-1,0.8-2.1,1.4-2.7,3.1
		C1046.5,598.9,1047.4,598,1047.9,596.8z M1042.4,602.8c1-0.5,1.9-1.3,2.5-2.7C1043.6,600.9,1042.9,601.7,1042.4,602.8z
		 M1049.5,585.4c-0.8,0.5-1.7,1-2,2.3C1048.6,587,1049.2,586.4,1049.5,585.4z"/>
	<path class="st0" d="M1061.4,603.9C1059.9,607,1061.5,603.7,1061.4,603.9c-0.4,1.1-0.8,2.2-1.2,3.3c-0.5-0.2-0.6-0.9-1.2-1
		c-0.1-0.4-0.2-0.7-0.7-0.6c-2-0.1-2.8,1.5-3.8,2.7c-1.6,2-2.8,4.3-4.2,6.4c-0.3,0.4-0.5,0.8-0.9,1.2c-0.7,0.6-1.5,0.9-2.4,0.5
		c-0.9-0.4-1.1-1.1-1.2-2c-0.2-2.4,1.2-4.1,2.6-5.6c2.6-2.8,3.4-6.2,4.3-9.7c1.1-1.5,2.1-3,3.2-4.4c1.9-2.3,3.1-2.1,4.3,0.7
		c0.5,1.2,1.2,2.7,1.4,4c0.1,0.4,0.1,0.9,0.2,1.7"/>
	<path class="st0" d="M1027.9,606.5c1.7-0.8,3.3-0.2,4.7,0.8c1,0.7,2,1.5,3,2.3c0.4-2.3-0.1-4.4-0.6-6.5c-0.5-2-1-4-1.4-6
		c-0.2-1.2-0.7-2.8,0.7-3.6c1.4-0.7,2.6,0.2,3.7,1c0.3,0.2,0.5,0.6,1,0.5c-1.2,4.4-1.6,8.9-2,13.5c-0.4,4.3-0.3,8.4,0.7,12.6
		c0.2,0.9,0.5,1.7,1,2.4c-0.9,0.2-1.4-0.4-1.9-1c-3.2-3.7-6.1-7.7-8.2-12.1c-0.1-0.3,0.7-1.4,0-1
		C1028.6,608.3,1027.9,607.6,1027.9,606.5z"/>
	<path class="st28" d="M1059,606.2c0.6,0.1,0.7,0.8,1.2,1c0.4,1.5,0.7,3,1.2,4.5c0.1,0.2-0.4,0.8,0.1,0.4c0,1.9-0.1,3.6-0.1,5.5
		c-0.6-0.1,0,0-0.2,0.5c-1.5,4.3-4.8,6.3-9.1,6.7c2.1-2.1,3.4-4.6,4.5-7.3C1057.9,613.8,1058.3,609.9,1059,606.2z"/>
	<path class="st29" d="M1049.8,576.1c-1.3,2.6-3.1,5-4,7.7c-0.8,2.3-1.6,4.7-2.5,7c-0.1-0.1-0.2-0.2-0.3-0.4c1.1-4.7,2.8-9,5.4-13.1
		c0.3-0.4,0.6-0.8,0.5-1.3C1049.1,576.1,1049.4,576.1,1049.8,576.1z"/>
	<path class="st30" d="M1052,624.8c-0.5,0.2-1,0.6-1.6,0.3c0-0.1,0.1-0.2,0.1-0.2c2.1-1,3.2-2.9,4.2-4.9c1.1-2.2-1.3-3.9-1.1-6.1
		c1.1,1.2,1,2.8,2.1,4.1c1.6-4,2.2-8.2,2.7-12.3c0.5-0.1,0.6,0.2,0.7,0.6c-0.7,3.8-1.1,7.6-2.5,11.3
		C1055.4,620.2,1054.1,622.7,1052,624.8z"/>
	<path class="st31" d="M1041.8,600.3c-0.6,6.8-0.6,13.5-0.1,20.3c-0.2,0-0.3,0-0.5,0c-0.1-1.9-0.3-3.9-0.4-5.8c0-1.2-0.8-2-1.3-2.9
		c-0.2-0.5-0.7-0.9-0.8-1.7c1.1,0.3,1.1,1.5,1.9,2c0.2-4.1-0.1-8,0.5-11.9C1041.5,600.3,1041.7,600.3,1041.8,600.3z"/>
	<path class="st32" d="M1041.8,600.3c-0.2,0-0.4,0-0.5,0c0.3-3.3,0.8-6.6,1.6-9.8c0.1,0.1,0.2,0.2,0.3,0.4c0.2,0.4,0.6,0.2,0.9,0.2
		c0.1,0.1,0.1,0.2,0.2,0.2C1042,593.9,1042.5,597.3,1041.8,600.3z"/>
	<path class="st31" d="M1047.9,596.8c-0.5,1.2-1.4,2.1-2.7,3.1C1045.8,598.2,1046.9,597.6,1047.9,596.8z"/>
	<path class="st32" d="M1044.1,591.1c0.6-1,1.4-1.9,2.7-2.8c-0.6,1.5-1.6,2.3-2.5,3C1044.3,591.2,1044.2,591.2,1044.1,591.1z"/>
	<path class="st31" d="M1042.4,602.8c0.5-1,1.2-1.9,2.5-2.7C1044.3,601.5,1043.5,602.3,1042.4,602.8z"/>
	<path class="st32" d="M1049.5,585.4c-0.3,1-0.9,1.6-2,2.3C1047.9,586.4,1048.7,585.9,1049.5,585.4z"/>
	<path class="st33" d="M1042.4,621.4c0.2-0.8,0.8-1.3,1.4-1.9c0.1,0.1,0.2,0.2,0.2,0.2c-0.2,0.8-0.8,1.3-1.4,1.9
		C1042.6,621.6,1042.5,621.5,1042.4,621.4z"/>
	<path class="st33" d="M1041.3,620.6c0.2,0,0.3,0,0.5,0c0.3,0.2-0.1,1,0.7,0.8c0.1,0.1,0.2,0.2,0.2,0.3c-0.2,0.2-0.4,0.3-0.7,0.3
		c-0.1,0-0.3,0-0.4,0C1041.2,621.5,1041.3,621,1041.3,620.6z"/>
	<path class="st33" d="M1043.8,619.5c0.1-0.4,0.4-0.7,0.7-0.9c0.2,0,0.3,0,0.5,0c-0.2,0.5-0.5,0.8-1,1.1
		C1043.9,619.7,1043.9,619.6,1043.8,619.5z"/>
	<path class="st34" d="M1050.5,624.8c0,0.1,0,0.2-0.1,0.2c-0.4,0.5-0.5,0-0.7-0.2C1050,624.9,1050.2,624.8,1050.5,624.8z"/>
	<path class="st35" d="M1045,618.7c-0.2,0-0.3,0-0.5,0c0.2-0.2,0.4-0.5,0.6-0.7c0.1,0.1,0.1,0.2,0.2,0.2
		C1045.2,618.3,1045.1,618.5,1045,618.7z"/>
	<path class="st35" d="M1045.1,617.9c0.1-0.2,0.3-0.4,0.5-0.2c0.2,0.2-0.1,0.3-0.3,0.4C1045.3,618.1,1045.2,618,1045.1,617.9z"/>
	<path class="st35" d="M1041.6,621.9c0.1,0,0.3,0,0.4,0C1041.9,622.1,1041.7,622.2,1041.6,621.9z"/>
	<path class="st36" d="M1360.1,47.4v1158.8c-50,49.7-380.2,31.8-466.6-51.7C844.6,1107.2,767.7,968.7,707,909
		c-5.6-5.5-11.9-10.3-16.7-15.1c-1.1-1.1-2.9-2.5-4-3.4c-62.4-49-195.1-100.9-334.3-80.4C208.7,831.2,109.2,693.3,88.9,604.9
		C45.8,416.7,456.1,120.4,634.8,47.4C802.7-21.2,1360.1,47.4,1360.1,47.4z"/>
	<linearGradient id="SVGID_6_" gradientUnits="userSpaceOnUse" x1="1060.8208" y1="113.5753" x2="1403.2612" y2="113.5753">
		<stop  offset="0" style="stop-color:#DEDEDE"/>
		<stop  offset="1" style="stop-color:#E6E6E6"/>
	</linearGradient>
	<circle class="st37" cx="1232" cy="113.6" r="171.2"/>
	<path class="st38" d="M1396.9,159.8c-8.5,30.5-25.3,57.5-47.7,78.5c-22.2-4.5-39-24.2-39-47.8c0-26.9,21.8-48.8,48.8-48.8
		C1374.4,141.8,1388,148.8,1396.9,159.8z"/>
	<circle class="st38" cx="1201" cy="29.6" r="48.8"/>
	<circle class="st38" cx="1129.5" cy="89.7" r="12.4"/>
	<circle class="st38" cx="1187.9" cy="230.2" r="16.5"/>
	<polygon class="st21" points="1323,671.9 1264,690.6 1258.9,673.6 1318.7,657.2 	"/>
	<polygon class="st24" points="1205.5,709.2 1097.8,743.4 1090.8,719.8 1199.8,689.9 	"/>
	<polygon class="st21" points="979.4,781 774.8,847 763.4,808.7 971.1,752.7 	"/>
	<polygon class="st39" points="1211,605.7 1067,895.3 1017.4,930.4 989,936.6 1005,959 956.8,952.1 1044.5,626.4 	"/>
	<path class="st39" d="M971.1,635.6l-150.1,401.6l-11.5,8.9c-5.5-9.4-66.5-102.7-124.4-153.5l62.2-229.2L971.1,635.6z"/>
	<path class="st40" d="M1422.6,624.7c-24.7-9.4-55.3-4-86.3-9.3c-11-1.9-89.1-14.2-111.2,19c-14,21.1-19.4,27.9-44.4,31.8
		c-23.9,3.7-59.3-14.7-82.4-22.1c-12.4-4-26,0.3-33.9,10.7c0,0-0.1,0.1-0.1,0.1c-10.4,13.7-7.9,19.6-23.3,27.2
		c-30.5,15.2-99.7-10.3-133.8-20.8c-4.8-1.5-15.6-5-28-1.9c-4.3,1.1-13.9,5.1-17.7,7.4c-17.2,10.5-29.1,19.1-42.2,34.3
		c-15.7,18.4-24.2,42.2-40.9,59.7c-13.2,13.8-31.2,23-50.1,25.5c-22.3,2.9-47.4-2.5-65.5,10.8c-10.3,9.8-16.9,23.4-18.3,37.5"/>
	<path class="st40" d="M1419,715.2c-5.7-16.8-53.2-39.3-75.3-50.2c-15.7-7.7-34.1-11.8-50.9-6.8c-26.3,7.7-28.9,46.5-51.8,61.4
		c-16.3,10.6-38.3,5.9-55.3-3.5c-5.3-2.9-10.4-6.2-15.3-9.7c-23-15.8-54.3-10.5-70.8,11.9c-2.1,2.8-4,5.8-5.9,8.8
		c-3.7,6.1-7.1,12.8-13,16.8c-18.3,12.4-42.9-9.1-64.3-3.8"/>
	<g class="st1">
		<g>
			<g>
				<path class="st2" d="M1043.4,875.2c54.5-0.1,86.1,96.7,78.4,144.5c-7.7,47.8,11.3,151.9,11.3,151.9s-83.4,22.8-80.2-138.6
					C1053.8,993,1000.9,875.3,1043.4,875.2z"/>
			</g>
		</g>
		<g>
			<g>
				<path class="st2" d="M1239.1,951c0,0,43.8-85.9,68-78.4c24.2,7.6,43.9,101.3,28.7,133.1c-15.1,31.8-54.2,181.5-96.7,176.9
					c-42.5-4.5-122.6-48.6-106-81C1149.8,1069.3,1239.1,951,1239.1,951z"/>
			</g>
		</g>
		<g>
			<g>
				<path class="st2" d="M1137.4,1229.1c31.8-6.5-42.1-94.7-45.6-127.4c-14.8-14.2-72-86.9-114.1-82.8c-46.8,4.5,55.3,137.1,112,197
					C1090.5,1199.7,1120.3,1232.6,1137.4,1229.1z"/>
			</g>
		</g>
		<g>
			<g>
				<path class="st41" d="M1284.6,1214.4c-13.5,7-32.5,11.2-53.2,13.6c-3.9,0.5-7.9,0.9-11.9,1.2c-38.8,3.1-81.1,0.8-103.3-0.9
					c-10-0.8-19.5-5.2-26.6-12.4c-2.1-2.2-4.5-4.7-7.2-7.4c-7.3-7.5-13.5-48.4-15.4-58.5c-4.8-26.2-13.6-277.1,100-440.9
					c12.3-17.7,25.5-25.3,37.4-25.9c2.5-0.1,4.8,0.1,7.2,0.5c17.4,3.4,30.8,21.8,32.5,44.4c7.6,99.5,10,254.1-40.3,308.5
					c-76.5,82.7-22.7,115.8,2.1,91c19.8-19.7,65.7-122,99.3-117.1c2.1,0.3,4.1,1,6,2.2c6.2,3.6,11.9,11.9,16.7,26
					C1359,1129.6,1336.3,1187.5,1284.6,1214.4z"/>
			</g>
		</g>
		<g>
			<g>
				<g>
					<path class="st42" d="M1125,1213c0.2,1.6-0.9,3.1-2.5,3.4c-0.2,0.1-0.3,0.1-0.5,0.1c-1.5,0-2.7-1.1-3-2.6
						c-0.5-3.6-50.2-348.3,85.5-530.8c2.5-0.1,4.8,0.1,7.2,0.5C1074.6,863.1,1124.4,1209.4,1125,1213z"/>
				</g>
			</g>
		</g>
		<g>
			<g>
				<path class="st42" d="M1311.3,1012.7c-3.2,41.1-17.8,164.2-79.9,215.2l-11.9,1.2c67.1-45.3,82.6-178.8,85.8-218.6
					C1307.3,1010.8,1309.4,1011.5,1311.3,1012.7z"/>
			</g>
		</g>
		<g>
			<g>
				<path class="st42" d="M1129.8,875.2c-0.7,0-1.5-0.3-2-0.8c-1.2-1.1-1.3-3-0.2-4.3l77-84.5c1.1-1.2,3-1.3,4.3-0.2
					c1.2,1.1,1.3,3,0.2,4.3l-77,84.5C1131.4,874.9,1130.6,875.2,1129.8,875.2z"/>
			</g>
		</g>
		<g>
			<g>
				<path class="st42" d="M1117.3,996.5c-0.7,0-1.5-0.3-2-0.8c-1.2-1.1-1.3-3-0.2-4.3l71.3-78.7c1.1-1.2,3-1.3,4.3-0.2
					c1.2,1.1,1.3,3,0.2,4.3l-71.3,78.7C1119,996.1,1118.2,996.5,1117.3,996.5z"/>
			</g>
		</g>
		<g>
			<g>
				<path class="st42" d="M1113.1,1106.1c-1,0-2-0.5-2.6-1.5c-9.5-15.8-34.3-57.1-35.5-58.9c-0.9-1.4-0.5-3.3,0.8-4.2
					c1.4-0.9,3.3-0.6,4.2,0.8c1.5,2.3,34.3,56.8,35.7,59.1c0.9,1.4,0.4,3.3-1,4.2C1114.1,1106,1113.6,1106.1,1113.1,1106.1z"/>
			</g>
		</g>
		<g>
			<g>
				<path class="st42" d="M1273.2,1166.6c-1.2,0-2.4-0.7-2.8-2l-21.1-56c-0.6-1.6,0.2-3.3,1.8-3.9c1.6-0.6,3.3,0.2,3.9,1.8l21.1,56
					c0.6,1.6-0.2,3.3-1.8,3.9C1274,1166.5,1273.6,1166.6,1273.2,1166.6z"/>
			</g>
		</g>
		<g>
			<g>
				<path class="st42" d="M1125.5,1198.7c-0.6,0-1.2-0.2-1.7-0.5c-1.4-1-1.7-2.8-0.8-4.2c1-1.5,25.5-36.7,38.7-48.2
					c1.3-1.1,3.2-1,4.3,0.3c1.1,1.3,1,3.2-0.3,4.3c-12.6,11-37.4,46.7-37.7,47.1C1127.4,1198.2,1126.4,1198.7,1125.5,1198.7z"/>
			</g>
		</g>
	</g>
	<path class="st6" d="M71.5,583c0,0,57.6-4.7,76,0c17.7,4.6,46.6,40.9,64,35.3c7-2.3,5.4-25.2,12.7-26.7c20.1-4,40.6,51.5,60.8,55.1
		c15.2,2.7,41.7-24.5,57-23.2c20.6,1.8,51.8,45.9,71.9,41.1c5.2-1.3,27.9-4.6,32.9-6.6c16.2-6.6,31.8,13.4,42.5,17.6
		c10.2,4,43.6,0,43.6,0l49.2-6.4c0,0-102.6-7.6-132.8-22.5c-12.8-6.3-32.2-30-45.8-34.4c-32.8-10.6-106.4,17.2-137.7,2.9
		c-15-6.9-27.1-43.9-42-50.9c-35.2-16.6-161-7.4-161-7.4L71.5,583z"/>
	<path class="st36" d="M1360.1,47.4v1158.8c-50,49.7-380.2,31.8-466.6-51.7C844.6,1107.2,767.7,968.7,707,909
		c-5.6-5.5-11.9-10.3-16.7-15.1c-1.1-1.1-2.9-2.5-4-3.4c-62.4-49-195.1-100.9-334.3-80.4C208.7,831.2,109.2,693.3,88.9,604.9
		C45.8,416.7,456.1,120.4,634.8,47.4C802.7-21.2,1360.1,47.4,1360.1,47.4z"/>
	<path class="st24" d="M430.6,361.3c0,0,20.4-17.2,26-12.7c3.2,2.6-3.8,14.9,0,16.3c4.6,1.7,8.2-16.1,13-15c6.9,1.5,1,26.9,8,27
		c8.1,0.1,2-29.8,10-30.7c12.4-1.3,13.3,48.1,13.3,48.1l5.7-40.5l8,13.2l2.7-22.5c0,0,10.6,32.4,19.3,30.2
		c5.1-1.2,1.9-20.9,1.9-20.9l16.8,23v-23l20.3,26.3l-5.4-23.5l-70.3-40.4l-101.1,46.9L430.6,361.3z"/>
	<polygon class="st6" points="303.6,461.6 310.6,483.3 312.6,464 	"/>
	<polygon class="st6" points="316.8,462.6 320.3,494.8 321.3,466.1 	"/>
	<polygon class="st6" points="423.6,497 428.1,508.1 429.4,498.2 	"/>
	<polygon class="st6" points="432.2,497.5 434.4,514.1 435.1,499.3 	"/>
	<path class="st43" d="M978.5,524c0.3,1.6,3.7,5.3,3.7,5.3s1.7-12.2,5-12.3c2.6,0,1.4,9.5,4,9.8c3.2,0.3,4-12,4-12
		s4.4,16.9,8.8,15.8c3.2-0.8,0-13.1,0-13.1l6.8,9.3c0,0,1.8-6,1.3-8c-0.9-3-8.1-10.4-8.1-10.4s-3.9-5.3-5.4-6.2
		c-1.4-0.9-4.3-0.5-5.7-0.6c-4.5-0.2-10.8,3.8-11.5,8.2C980.8,513.5,977.8,520.5,978.5,524z"/>
	<path class="st21" d="M1041.1,512c0,0,3.9,5.2,5.9,5.2c2.5-0.1,7.3-7,7.3-7l-2.4-6.3c0,0-0.7-1.8-3.1-2.2c-1.8-0.3-2.1,0.6-2.1,0.6
		s-1.6,2.7-2.2,3.7C1042.6,508.8,1041.1,512,1041.1,512z"/>
	<polygon class="st6" points="396.4,476 404.2,528.8 406.5,481.7 	"/>
	<polygon class="st6" points="328.2,465.3 341,525.2 344.6,471.8 	"/>
	<path class="st43" d="M892.8,488.9c0,0-2.1,10.3,0.9,11c2,0.5,6.7-5.3,8.7-5.1c3.3,0.2,5.3,12.1,5.3,12.1l2.5-16
		c0,0,6.1,23.1,12.3,21.8c4.7-1-1.4-16.6,2.7-14.1c2.5,1.5,5.8,6.3,5.8,6.3l1.5-14.8c0,0,2.6,21.4,8.4,20.8
		c5.2-0.5-0.1-19.2-0.1-19.2s-2-15.5-22.9-13.9C896,479.5,892.8,488.9,892.8,488.9z"/>
	<path class="st22" d="M509,623.5c-3.5,0.8-7,1.3-10,1.7c-7.4,0.8-16.9-4.3-20.2-11c-8.3-16.8,0-36.3,2.1-41.7
		c9-23.4,4.3-61,1.1-88.9c2.6,3.5,6.7,6.5,8.9,10.4c5.5,9.4-0.1,22.1,4.7,31.9c1.5,3.1,4.1,5.8,4.9,9.2c1.2,5-1.6,10-2.1,15.1
		c-0.8,8.5,4.8,16.4,5.3,24.9c0.3,6-1.9,11.9-1.3,17.8c0.4,4.4,2.4,8.6,3.7,12.9c1,3.5,1.5,7.1,1.9,10.7
		C508.4,618.9,508.7,621.2,509,623.5z"/>
	<path class="st22" d="M557.9,613.7c-5.1,1.6-10.4,2.6-14.8,3.1c-10.4,1.3-23.6-7.4-28.2-19.1c-11.5-29.1,9.3-61.2,11.5-70.8
		c3.5-15.3,1.7-32.4,2.9-48.1c2.9,3.7,5.6,7.4,8.2,11.3c0.9,1.3,1.7,2.7,1.9,4.3c0.2,1.9-0.5,3.7-1.3,5.5
		c-3.4,7.6-7.2,15.6-6.1,23.9c1.6,12.1,13.1,21.9,11.9,34.1c-0.5,4.3-2.6,8.5-2.3,12.8c0.1,2.2,0.9,4.3,1.4,6.4
		c1.6,7,0,14.5,2.3,21.2c2,6,6.8,10.7,11.8,14.6C557.3,613.3,557.6,613.5,557.9,613.7z"/>
	<path class="st19" d="M530.3,473.9c0,0,1.5,53.8,7.9,41.7c4.2-7.9,7.9-30.2,7.9-30.2s6.5,41.1,9.8,33.1c2.3-5.7-4.1-32.4-4.1-32.4
		l6.1,12.3c0,0-0.7-14.1-0.4-18.3c0.2-2.5,4.9,8.6,4.9,8.6l0.9-12.8c0,0-3.2-15.4-5.4-20.2c-0.8-1.7-2.4-5.4-4.1-6.1
		c-3.3-1.4-11.3,0.5-14.3,2.5c-2.6,1.7-5.7,7.5-6.6,10.4C532,465.1,530.3,473.9,530.3,473.9z"/>
	<path class="st44" d="M912,442.1c6.4,6,60.2-14.2,60.2-14.2s3.8,15.2,8,15c4-0.2,2.1-14.2,6-15c2.6-0.5,7.6,7.5,7.6,7.5l2.4-12
		c0,0,16.7,25.9,19,19.5c1.5-4.1-2.5-19.5-2.5-19.5s30.4,23.4,35.5,18.9c3.4-3-22.2-18.9-22.2-18.9l-37.3-25.3l-46.5,25.1
		C942.1,423.3,909.2,439.5,912,442.1z"/>
	<path class="st1" d="M967,709.9"/>
	<linearGradient id="SVGID_7_" gradientUnits="userSpaceOnUse" x1="965.59" y1="710.5815" x2="965.59" y2="710.5815">
		<stop  offset="0" style="stop-color:#F76D6D"/>
		<stop  offset="1" style="stop-color:#FF2D17"/>
	</linearGradient>
	<path class="st45" d="M965.6,710.6"/>
	<polygon class="st8" points="892,1038.6 959.2,995.1 956.8,952.1 863.9,987.1 	"/>
	<polygon class="st46" points="1005,959 956.8,952.1 959.2,995.1 1000,999.6 	"/>
	<path class="st36" d="M1360.1,47.4v1158.8c-50,49.7-380.2,31.8-466.6-51.7C844.6,1107.2,767.7,968.7,707,909
		c-5.6-5.5-11.9-10.3-16.7-15.1c-1.1-1.1-2.9-2.5-4-3.4c-62.4-49-195.1-100.9-334.3-80.4C208.7,831.2,109.2,693.3,88.9,604.9
		C45.8,416.7,456.1,120.4,634.8,47.4C802.7-21.2,1360.1,47.4,1360.1,47.4z"/>
	<polyline class="st8" points="822.9,1062.4 785.7,1008 857.3,992.1 851,1067.6 	"/>
	<polygon class="st47" points="824.7,967.9 857.3,992.1 851,1067.6 892,1038.6 880.6,980.8 	"/>
	<polygon class="st46" points="1306.2,808.5 1266.8,802.3 1271.2,846.4 1304.1,849.2 	"/>
	<polygon class="st8" points="1320.2,774.9 1266.8,802.3 1306.2,808.5 	"/>
	<polygon class="st15" points="1264.5,792.2 1266.8,802.3 1305.7,808.5 1305.9,782.3 	"/>
	<linearGradient id="SVGID_8_" gradientUnits="userSpaceOnUse" x1="856.7969" y1="990.6926" x2="868.4294" y2="1036.8109">
		<stop  offset="0" style="stop-color:#000000;stop-opacity:0.2"/>
		<stop  offset="0.9892" style="stop-color:#000000;stop-opacity:0"/>
	</linearGradient>
	<polygon class="st48" points="824.7,967.9 857.4,992.1 851.1,1067.6 892,1038.6 880.7,980.8 	"/>
</g>
<g class="st49">
	<linearGradient id="SVGID_9_" gradientUnits="userSpaceOnUse" x1="-3.7039" y1="1229.2693" x2="1012.0687" y2="1229.2693">
		<stop  offset="0" style="stop-color:#FFFFFF;stop-opacity:0"/>
		<stop  offset="0.329" style="stop-color:#000000"/>
	</linearGradient>
	<path class="st50" d="M1010.5,818c5-6-3-27.5-8-32.1c-3.5-3.1-14.3,0.7-20.8,3.4c-3.4-0.8-8.1-0.1-14.5,3.5
		c-22.5,12.4-17.2,19.7-29.3,32.4c-2.4,2.5-6.2,9-22.9,19.5c-0.2,0.2-0.3,0.4-0.3,0.8c-26.8,13.8-83.1,42.7-139.9,72.3l-4.8,2.5l0,0
		c-70.1,36.5-139.8,73.3-154.6,82.9c-6.9,4.5-16.3,10.8-27.4,18.5l-14.3-5.1c-33.7,24.9-65,95-108.5,127.8
		c-1.8-8.4-11.2-42.8-13.1-74.6l8-63.9c10.9-12.3,24.2-26.7,37.6-41.1l3.9-4.2c6.4-6.8,12.8-13.6,19-20.2l0,0l4-4.2
		c17.3-18.2,32.6-34,40.8-42.4c0.8,0,1.4-0.1,1.7-0.3c25.6-14.1,60.6-45.8,67.7-55.8c6-4,12.8-9.3,12.9-12.5
		c0.2-5.7-41.2-13.4-55.5-13.4c-9.6,0-25.6,26.1-32.5,30.8c-7.1,1.1,12.4,3.4,6.3,8.7c-20.1,17.6-11.9,3.8-14.7,16.5
		c-0.6,2.5-14.8,17.8-13.6,19.9c0,0.2,0.1,0.3,0.3,0.5c-13.9,9.9-38.7,27.9-66.9,50.2l0,0l-0.1,0c-1,0.8-1.9,1.5-2.9,2.3L443,960.9
		c-30,25-61,53.3-85.2,80.8h0c-0.7,0.8-1.4,1.6-2.1,2.5c-0.2,0.2-0.4,0.4-0.5,0.7c-0.5,0.7-1.1,1.3-1.6,2c-0.1,0.2-0.3,0.4-0.4,0.6
		c-0.6,0.9-1.3,1.7-1.9,2.6c-0.1,0.1-0.2,0.3-0.3,0.4c-0.5,0.8-1,1.5-1.5,2.3c-0.2,0.2-0.3,0.5-0.5,0.7c-0.5,0.8-1,1.6-1.5,2.3
		c-0.1,0.1-0.2,0.3-0.3,0.4c-0.6,0.9-1.1,1.9-1.6,2.8c-0.1,0.2-0.3,0.5-0.4,0.7c-0.4,0.7-0.8,1.4-1.2,2.2c-0.2,0.3-0.3,0.6-0.5,0.9
		c-0.4,0.9-0.9,1.7-1.3,2.6c-0.1,0.2-0.2,0.4-0.3,0.6c-0.4,0.8-0.8,1.6-1.1,2.5c-0.2,0.4-0.4,0.8-0.5,1.2c-0.3,0.6-0.5,1.1-0.7,1.7
		c-0.2,0.5-0.4,0.9-0.6,1.4c-0.2,0.6-0.5,1.2-0.7,1.7c-0.4,0.9-0.7,1.9-1.1,2.8c-0.1,0.2-0.2,0.4-0.2,0.6l-13.6,2.8
		c-18.7,68.1-8.9,125.6-2.8,150.5c-4.3,3.1-8.7,6.2-13.1,9.4l-7.3-1.4l7.3,1.4c-13.7,9.8-27.9,20.1-41.5,30.1l0,0l-6.1,4.4l0,0
		c-8,5.8-15.7,11.5-22.9,16.9l-1.3,1l0,0c-25.1,18.7-44.4,33.8-48.6,38.8c-14.3,17-95,99-99,134.7c-4,35.7,31.2,40.9,44.6,39.1
		c3.4,1.9-0.6,9.1-6.7,17.1l0,0l-9.6,11.5c-0.2,0.2-0.4,0.4-0.6,0.6l-12.6,13.3c0,0-23.7,11-50,33.4c-7.1,0.6-12.2,1.3-13.9,2.2
		c-9.7,5.3-42.8,37.7-42.9,44.4c0,1.1,3.3,2,9,2.6c-5.5,11.3-9.6,24.1-5.3,32.8c2.3,6.9,10.1,11.1,27.1,9.9c0,0,0,0,0,0
		c0,0,0.1,0,0.1,0c36.4-1.8,71.9-25.3,94.6-43.8c6.3-0.7,10.7-1.4,12.4-2.2c11.1-5.4,37.3-41.5,34.8-44.7c-0.5-0.6-4.8-1.1-11.6-1.5
		c13.9-24.3,11.4-36.8,11.4-36.8s25.2-32.7,40.1-41.9c0,0,54.3-1.1,101-28.6c43.9-25.9,130.6-95.9,146.9-118.6
		c6.8-9.5,9-20.5,8.7-31.6l0.2-3.2l-0.3,0.1c-0.2-3.5-0.7-7-1.3-10.5l0,0l-0.5-3.5l-0.1,0.1c-2.6-12.7-7.1-24.8-10.3-34.6
		c2.1-2.9,4.1-5.6,6-8.2l0,0c0,0,0,0,0,0c3.7-5.1,6.9-9.7,9.7-13.6l0,0l0,0c7.7-11,11.7-17,11.7-17c-0.2-0.1-0.4-0.3-0.6-0.4
		C503,1214.1,617.9,1085,658,1047l-3.1-1.5l-0.4-0.1l0,0l-5.3-2c0,0,0,0-0.1,0.1l-1.4-0.5c0,0,0.1,0,0.1-0.1l0.2,0.1l-0.1-0.1
		c36.3-24.4,92.5-61.3,146.2-96.3l0,0l5.5-3.6l0,0c9.8-6.4,19.4-12.7,28.8-18.8l0,0l5.5-3.6l0,0c33.4-21.7,63.1-41,82.9-53.8
		l2.9-1.9c0.2-0.1,0.3-0.2,0.5-0.3c36.8-16.9,41.6-17.1,75-37.5C1000.9,824.7,1007.7,821.3,1010.5,818z M341.8,1412.7
		c-2.7,1.1-4.8,2.4-6.3,3.3c3.9-3.4,14.1-13.2,33.2-36.1c18.8-22.5,35.5-43.3,49.8-61.8l0,0c0.1-0.1,0.2-0.3,0.3-0.4
		c0.1-0.2,0.2-0.3,0.4-0.5c-1.2,3.6-2.6,7.3-4.1,11.1l-0.1,0l-0.2,0.7c-2.3,5.8-5,11.9-8.1,18.1l-0.1,0l-0.4,0.9
		c-2.1,4.2-4.4,8.5-6.8,12.9C395.4,1368.1,354.2,1407.6,341.8,1412.7z M278.4,1295.5L278.4,1295.5l0.6-0.5l1-0.9
		c-68.9,75.4-82.2,106.3-114.1,134.7c-23.7,21.1,68.9-93.9,68.9-93.9L278.4,1295.5z"/>
</g>
<g>
	<g id="Group_2414_31_">
		<g id="Group_2410_31_" transform="translate(-5539 -3213)">
			
				<ellipse id="Ellipse_9768_31_" transform="matrix(0.977 -0.2134 0.2134 0.977 -804.2422 1350.7969)" class="st51" cx="5853.4" cy="4399.9" rx="36.3" ry="12.6"/>
			<path id="Path_4138_31_" class="st51" d="M5888.8,4393l-4.2-20.6l-70.6,16.1l4.4,19.5L5888.8,4393z"/>
			
				<ellipse id="Ellipse_9767_31_" transform="matrix(0.977 -0.2134 0.2134 0.977 -800.2285 1349.4602)" class="st52" cx="5849.3" cy="4380.6" rx="36.3" ry="12.6"/>
		</g>
	</g>
	<path class="st53" d="M593.3,400.5c-5.7-2.6-10.9-1.7-15.2,3.7L593.3,400.5z"/>
	
		<linearGradient id="SVGID_10_" gradientUnits="userSpaceOnUse" x1="611.6183" y1="2112.7263" x2="689.1849" y2="2487.1646" gradientTransform="matrix(0.9766 -0.2149 0.2149 0.9766 -397.8108 -1426.8254)">
		<stop  offset="0" style="stop-color:#F76D6D"/>
		<stop  offset="1" style="stop-color:#FF2D17"/>
	</linearGradient>
	<path class="st54" d="M797.1,557.5c-27.6-28.4-90.2-157.3-90.2-157.3s-127.1,33.3-128.1,32.6c-12,30-97,176.7-81.3,231.2
		c21.3,74.4,90,141.1,90,141.1l24.4-14.9c0,0-45-115.6-45.6-141.1c-0.4-14.7,88.1-135,86.9-138c32.1,41.1,85.7,98.6,106.1,116.4
		c18.2,15.9,202.7,112.4,202.7,112.4l17.7-19C979.6,720.8,831.3,592.7,797.1,557.5z"/>
	<polygon class="st55" points="575.2,792.2 582.7,800.2 610.1,785.9 609.1,783.1 	"/>
	
		<linearGradient id="SVGID_11_" gradientUnits="userSpaceOnUse" x1="525.595" y1="2051.3562" x2="651.9372" y2="2281.5505" gradientTransform="matrix(0.9766 -0.2149 0.2149 0.9766 -397.8108 -1426.8254)">
		<stop  offset="0" style="stop-color:#F77775"/>
		<stop  offset="1" style="stop-color:#F76D5C"/>
	</linearGradient>
	<path class="st56" d="M819.2,566.3l3.7-2.6c-17.6-36.8-107.6-159.6-108.8-162.3c0,0-135.4,29.8-137.1,30.4c0,0-63.7,93-90.4,195
		l105.1-3.5c18.2-41.4,54.2-98.1,61.4-110.2c22.6,27.2,56.8,89.2,74.6,109.7L819.2,566.3z"/>
	<ellipse transform="matrix(0.971 -0.2389 0.2389 0.971 4.4796 146.1967)" class="st57" cx="605.3" cy="54.6" rx="6.1" ry="11.7"/>
	<path class="st57" d="M610.8,155.7c-8.8-6.9-14.4-39-14.4-39s12.7-21.5,8.8-54.8c-0.7-8.1-14.8-72.1-70-60.6s-36.6,76.7-35.6,81.1
		c10.6,36.1,37.8,47.5,37.8,47.5s14.9,34.5,4.2,42.6l4.7,23.9l65.9-16.2L610.8,155.7z"/>
	
		<linearGradient id="SVGID_12_" gradientUnits="userSpaceOnUse" x1="-1151.6993" y1="1464.939" x2="-1151.6993" y2="1490.0614" gradientTransform="matrix(-0.971 0.2389 0.2389 0.971 -901.7495 -1024.5433)">
		<stop  offset="0" style="stop-color:#111111;stop-opacity:0.5"/>
		<stop  offset="1" style="stop-color:#111111;stop-opacity:0"/>
	</linearGradient>
	<path class="st58" d="M596.2,117.4c-24.1,26.9-35.7,24.5-58.7,12.6l4.6,12.8l2.7,11.3l57-14l-2.8-11.3L596.2,117.4z"/>
	<path class="st57" d="M627.9,412.1"/>
	<path class="st59" d="M691.4,385.4c0.7,0,7.5,2.9,7.6,2.2c0.4-13,66.1-88.4,61.8-123.6c-2.7-22.7-45.1-82.6-71.8-101.5
		c-28.4-20.1-78.2-6.8-78.2-6.8s-23.9,34.2-69.2,16.8c-11.5,1.4-47.1,17.2-62.9,58.5c-15.8,41.4,14.4,117.2,18.4,133.6
		c4,16.4,105.6,122.7,105.6,122.7l7.9-15l-67.4-124.1c0,0-23.2-111.9-12.7-93.2c17,30.4,7,72,50,177.6c0,0,118.2-15.2,135.7-29.9
		c0,0-4.1-61.7-23.8-144.1c-11.1-46.5-16.9-34.7-7.1-31.7c8.7,2.7,25.4,38.5,25.3,46c-1,55.2-24.7,110.6-25.4,107.7"/>
	
		<linearGradient id="SVGID_13_" gradientUnits="userSpaceOnUse" x1="555.156" y1="2005.6541" x2="698.3456" y2="2005.6541" gradientTransform="matrix(0.9766 -0.2149 0.2149 0.9766 -397.8108 -1426.8254)">
		<stop  offset="0" style="stop-color:#F76D6D"/>
		<stop  offset="1" style="stop-color:#FF0000"/>
	</linearGradient>
	<path class="st60" d="M675.2,384.1l-101.4,21.3l6.9,13.3c0,0,124.4-18.6,134-33.1c0,0-1.2-7.9-1.6-13.6L675.2,384.1"/>
	<ellipse transform="matrix(0.971 -0.2389 0.2389 0.971 -4.9144 121.3807)" class="st57" cx="498.2" cy="81" rx="6.1" ry="11.7"/>
	<path id="Path_4135_30_" class="st52" d="M685.2,380.7l13.8,6.9c0,0-10.9,31.8-23.2,36.3c-12.2,4.5-28.2-10.7-25.8-21.6
		c0.2-1.1-2.3-2.8-1.2-4.3c1.2-1.7,6.2-2.8,9-4.7C667.5,386.6,685.2,380.7,685.2,380.7z"/>
	<path id="Path_4136_30_" class="st52" d="M602.8,487.4l7.9-15c0,0,23.9,0.9,35.4,7.7c6.9,4.1,2.2,13.1,4,18.4
		c0.5,1.5,0.8,3.1,0.8,4.7c0.2,3.9-5.4,4.6-8.1,8.6c-4.7,7.2-9.7,16.3-16.9,14.7c-1.2-0.3-3.1,2.5-4.8,1.2c-1.8-1.4-2.9-6.9-5-10
		C608.9,506.9,602.8,487.4,602.8,487.4z"/>
	<path id="Path_4120_29_" class="st52" d="M609.9,48.2c0,0-19.7-59.6-74.5-46.8s-43,81.1-43,81.1s5.5,17.2,7.1,11.1
		c3.2-12.7-8.7-36.9,7.7-41.1l85.1-23.7c10.2,7.5,16.8,51,19.8,34C612.9,57.5,609.9,48.2,609.9,48.2z"/>
	<g>
		<g id="Group_2401_54_" transform="translate(6616.909 -3408.912) rotate(21)">
			<path id="Path_4073_75_" class="st52" d="M-3808.3,5897.9c-1.3-1.6,4.8-28.8,6.8-29.2c27.2,1.5,31-0.8,55,7.2
				c1.2,0.4,1.1,0.5,1.4,0.8c-0.1,5.3-0.3,4.5-1.2,9.7c-0.8,7.2-2.7,14.2-5.5,20.8c-1.6,3.7-5.4,33.2-21.8,29.6
				s-11.2-16.2-19.1-26.1C-3794.2,5908.8-3796.4,5902.5-3808.3,5897.9z"/>
		</g>
		<path id="Path_4074_108_" class="st61" d="M977.2,781c0,0,6.8,7.9,15.9,2.5c9.5-5.6,34.3-33.9,31.8-38.7c-2.8-5.3-4.8-3.6-4.8-3.6
			l-25.6,32L977.2,781z"/>
		<g>
			<path class="st62" d="M1014.6,735.4c0,0-5.9,7.9-7.5,10.7c-5.4,10.1-31,35.9-31.7,36.7c0.4-0.2,11.6,2.2,18.8-3.6
				c7.4-6,28.8-31.9,28.7-36.1C1022.7,738.9,1014.6,735.4,1014.6,735.4z M1010.4,757.7l-8.9,10.2l-1.7-0.1l-2.8,1.4l-0.9-4.4
				l7.3-10.6l1.8,1.8l5.2-1L1010.4,757.7z"/>
			<path class="st62" d="M978.1,786.8C978.1,786.8,978.1,786.8,978.1,786.8C978.1,786.8,978.1,786.8,978.1,786.8z"/>
		</g>
		<path class="st63" d="M960.2,712.9c0,0,13.9,10.3,16.2,14.8c6.4,12.8-5.9,54.7-9.9,53.6c0,0-3.9-2.2-6.2-6.1
			c-1.9-3.4-2.3-8.2-1.8-11.3c1.4-8.7,0-12.5-1.1-16c-0.6-2-0.4-2.9-1.1-3.8c-8.5-11.5-8.5-11.5-8.5-11.5s1.1-3.7,3-6.2
			C952.1,724.5,960.2,712.9,960.2,712.9z"/>
		<polygon class="st59" points="956.4,744.1 973.3,723.8 972.4,722.9 955.4,742.7 		"/>
		<polygon class="st59" points="953.3,739.9 964.3,726.7 963.3,725.8 952.5,738.8 		"/>
		
			<linearGradient id="SVGID_14_" gradientUnits="userSpaceOnUse" x1="1815.0798" y1="6569.6411" x2="1825.7594" y2="6569.6411" gradientTransform="matrix(0.5689 -0.8224 0.8224 0.5689 -5442.7363 -1486.2092)">
			<stop  offset="0" style="stop-color:#F76D6D"/>
			<stop  offset="1" style="stop-color:#FF2D17"/>
		</linearGradient>
		<polygon class="st64" points="1002.6,752.7 988.8,756.1 1001.7,753.9 		"/>
		
			<linearGradient id="SVGID_15_" gradientUnits="userSpaceOnUse" x1="2564.6438" y1="7613.7852" x2="2589.7805" y2="7613.7852" gradientTransform="matrix(0.4984 -0.7213 0.7232 0.5009 -5792.6401 -1213.3547)">
			<stop  offset="0" style="stop-color:#F76D6D"/>
			<stop  offset="1" style="stop-color:#FF2D17"/>
		</linearGradient>
		<polygon class="st65" points="1012.6,738.1 984.2,745.2 1011.8,739.1 		"/>
		
			<linearGradient id="SVGID_16_" gradientUnits="userSpaceOnUse" x1="2466.0813" y1="6083.8076" x2="2479.7349" y2="6083.8076" gradientTransform="matrix(0.6378 -0.7702 0.7702 0.6378 -5260.4712 -1229.2114)">
			<stop  offset="0" style="stop-color:#F76D6D"/>
			<stop  offset="1" style="stop-color:#FF2D17"/>
		</linearGradient>
		<polyline class="st66" points="1000.2,752.6 1006.3,741 1004,741.5 999.2,752.8 		"/>
		
			<linearGradient id="SVGID_17_" gradientUnits="userSpaceOnUse" x1="1821.7692" y1="6568.062" x2="1833.8444" y2="6568.062" gradientTransform="matrix(0.5689 -0.8224 0.8224 0.5689 -5442.7363 -1486.2092)">
			<stop  offset="0" style="stop-color:#F76D6D"/>
			<stop  offset="1" style="stop-color:#FF2D17"/>
		</linearGradient>
		<polygon class="st67" points="996.9,753 1001.5,742.1 999.9,742.5 996.4,753.2 		"/>
		
			<linearGradient id="SVGID_18_" gradientUnits="userSpaceOnUse" x1="1819.2949" y1="6565.6958" x2="1831.3702" y2="6565.6958" gradientTransform="matrix(0.5689 -0.8224 0.8224 0.5689 -5442.7363 -1486.2092)">
			<stop  offset="0" style="stop-color:#F76D6D"/>
			<stop  offset="1" style="stop-color:#FF2D17"/>
		</linearGradient>
		<polygon class="st68" points="993.6,753.7 998.1,742.8 996.5,743.2 993,753.9 		"/>
		
			<linearGradient id="SVGID_19_" gradientUnits="userSpaceOnUse" x1="1816.7799" y1="6563.5317" x2="1828.8552" y2="6563.5317" gradientTransform="matrix(0.5689 -0.8224 0.8224 0.5689 -5442.7363 -1486.2092)">
			<stop  offset="0" style="stop-color:#F76D6D"/>
			<stop  offset="1" style="stop-color:#FF2D17"/>
		</linearGradient>
		<polygon class="st69" points="990.3,754.6 994.9,743.6 993.3,744 989.8,754.8 		"/>
		<g>
			
				<linearGradient id="SVGID_20_" gradientUnits="userSpaceOnUse" x1="2736.7456" y1="4675.3213" x2="2741.2051" y2="4675.3213" gradientTransform="matrix(0.8407 -0.5415 0.5415 0.8407 -3846.5237 -1715.1798)">
				<stop  offset="0" style="stop-color:#F76D6D"/>
				<stop  offset="1" style="stop-color:#FF2D17"/>
			</linearGradient>
			<path class="st70" d="M989.5,732.2l-1.6-0.8l1,1.7l-0.1,0.2l-1.9-0.4l1.3,1.2l-0.5,0.7l-2.2-2.2l0.5-0.7l1.8,0.4l-0.9-1.6
				l0.5-0.7l2.7,1.4L989.5,732.2L989.5,732.2z"/>
			<g>
				
					<linearGradient id="SVGID_21_" gradientUnits="userSpaceOnUse" x1="2739.9424" y1="4674.1978" x2="2743.0273" y2="4674.1978" gradientTransform="matrix(0.8407 -0.5415 0.5415 0.8407 -3846.5237 -1715.1798)">
					<stop  offset="0" style="stop-color:#F76D6D"/>
					<stop  offset="1" style="stop-color:#FF2D17"/>
				</linearGradient>
				<path class="st71" d="M989.8,729.1L989.8,729.1c0-0.3-0.1-0.5-0.3-0.7c-0.4-0.3-0.9-0.1-1.2,0.3l-0.8,1.1l2.7,1.4l0.6-0.8
					c0.3-0.5,0.3-1-0.1-1.3C990.4,729,990,729,989.8,729.1z M988.5,729.6l0.3-0.3c0.1-0.1,0.3-0.2,0.4-0.1l0,0
					c0.1,0.1,0.2,0.2,0,0.4l-0.3,0.3L988.5,729.6z M990.1,730.2l-0.3,0.4l-0.5-0.3l0.3-0.4c0.1-0.1,0.3-0.2,0.4-0.1
					C990.2,729.9,990.2,730.1,990.1,730.2z"/>
			</g>
			
				<linearGradient id="SVGID_22_" gradientUnits="userSpaceOnUse" x1="2742.4951" y1="4673.1841" x2="2745.6726" y2="4673.1841" gradientTransform="matrix(0.8407 -0.5415 0.5415 0.8407 -3846.5237 -1715.1798)">
				<stop  offset="0" style="stop-color:#F76D6D"/>
				<stop  offset="1" style="stop-color:#FF2D17"/>
			</linearGradient>
			<path class="st72" d="M991.6,727.2c0.2,0.3,0.2,0.6,0,0.9c-0.3,0.4-0.7,0.4-1.1,0.1c-0.4-0.3-0.5-0.7-0.2-1.1
				c0.2-0.3,0.5-0.4,0.8-0.3l0.5-0.7c-0.7-0.4-1.5-0.2-2,0.5c-0.3,0.5-0.4,1-0.3,1.5c0.1,0,0.1,0.1,0.2,0.1c0.2,0.1,0.3,0.4,0.3,0.6
				c0,0,0,0,0.1,0.1c0.3-0.1,0.6-0.1,0.8,0.1c0.1,0.1,0.2,0.2,0.2,0.3c0.5,0,0.9-0.3,1.3-0.7l0,0c0.5-0.7,0.4-1.5-0.2-2.1
				L991.6,727.2L991.6,727.2z"/>
			
				<linearGradient id="SVGID_23_" gradientUnits="userSpaceOnUse" x1="2746.002" y1="4673.6533" x2="2746.718" y2="4673.6533" gradientTransform="matrix(0.8407 -0.5415 0.5415 0.8407 -3846.5237 -1715.1798)">
				<stop  offset="0" style="stop-color:#F76D6D"/>
				<stop  offset="1" style="stop-color:#FF2D17"/>
			</linearGradient>
			<polygon class="st73" points="992.8,726.9 993.1,726.4 993.5,726.7 993.2,727.2 			"/>
		</g>
		
			<linearGradient id="SVGID_24_" gradientUnits="userSpaceOnUse" x1="2735.1196" y1="4674.4839" x2="2748.7759" y2="4674.4839" gradientTransform="matrix(0.8407 -0.5415 0.5415 0.8407 -3846.5237 -1715.1798)">
			<stop  offset="0" style="stop-color:#F76D6D"/>
			<stop  offset="1" style="stop-color:#FF2D17"/>
		</linearGradient>
		<polygon class="st74" points="987.2,736.5 984,732.6 986.2,727.4 991.2,724.4 994.9,726 993,732.4 		"/>
	</g>
	<path id="Path_4121_29_" class="st75" d="M481.9,63.6c3.5-8,120.5-39.9,127.8-36.4s12,39.3,7.9,43.8s-114,37.6-120.1,33.8
		S478.3,71.6,481.9,63.6z"/>
	<path class="st59" d="M818.8,566.6L714.1,401.4c0,0-3.6,1-6,1.3c-2.6,0.4,104.7,167.6,104.7,167.6L818.8,566.6z"/>
	<polygon class="st59" points="685.7,381 705,372.8 699,387.7 	"/>
	<polyline class="st55" points="705,372.8 699,387.7 685.2,380.7 685.7,379.8 699.1,386.5 	"/>
	<polygon class="st55" points="744.7,613 811.4,571.2 753.3,621.6 	"/>
	<g>
		
			<linearGradient id="SVGID_25_" gradientUnits="userSpaceOnUse" x1="564.9711" y1="1865.3739" x2="613.8163" y2="1865.3739" gradientTransform="matrix(0.9766 -0.2149 0.2149 0.9766 -397.8108 -1426.8254)">
			<stop  offset="0" style="stop-color:#F77775"/>
			<stop  offset="1" style="stop-color:#F76D5C"/>
		</linearGradient>
		<path class="st76" d="M596.4,283.2l-7.5-20.1l-4.9,22.9l-2.9,0.7l-14.2-18.6l1.9,21.3l-10,2.3l-2.7-37.2l9.9-2.2l12.9,17.7
			l4.1-21.5l9.9-2.2l13.5,34.8L596.4,283.2L596.4,283.2z"/>
		<g>
			
				<linearGradient id="SVGID_26_" gradientUnits="userSpaceOnUse" x1="611.5787" y1="1865.192" x2="640.5975" y2="1865.192" gradientTransform="matrix(0.9766 -0.2149 0.2149 0.9766 -397.8108 -1426.8254)">
				<stop  offset="0" style="stop-color:#F77775"/>
				<stop  offset="1" style="stop-color:#F76D5C"/>
			</linearGradient>
			<path class="st77" d="M622.8,257.3L622.8,257.3c2.4-2.3,3.5-5.6,2.8-8.8c-1.2-5.3-6.7-8.2-13.1-6.7l-16.1,3.6l13.5,34.8l11.1-2.5
				c6.6-1.5,10.7-7,9.4-12.9C629.4,260.9,626.6,258.1,622.8,257.3z M607.5,251l5-1.1c2.1-0.5,3.6,0.5,4.1,2.4l0,0
				c0.4,1.9-0.6,3.4-2.7,3.9l-5,1.1L607.5,251z M617.4,269.9l-5.4,1.2l-1.5-6.5l5.4-1.2c2.1-0.5,3.9,0.5,4.3,2.5
				C620.7,267.8,619.6,269.4,617.4,269.9z"/>
		</g>
		
			<linearGradient id="SVGID_27_" gradientUnits="userSpaceOnUse" x1="638.3517" y1="1864.9847" x2="676.7228" y2="1864.9847" gradientTransform="matrix(0.9766 -0.2149 0.2149 0.9766 -397.8108 -1426.8254)">
			<stop  offset="0" style="stop-color:#F77775"/>
			<stop  offset="1" style="stop-color:#F76D5C"/>
		</linearGradient>
		<path class="st78" d="M654.4,254.4c-0.1,4.2-2.7,7.5-6.6,8.4c-5.1,1.1-9.7-2-11-7.6c-1.3-5.6,1.6-10.5,6.7-11.7
			c3.8-0.9,7.4,0.8,9.5,4.3l10-2.3c-3.5-8.8-12.2-13.4-21.7-11.2c-6.6,1.5-11.6,5.7-13.9,11.3c0.4,0.7,0.7,1.5,0.9,2.3
			c0.7,2.9-0.2,5.8-2.1,8.1c0,0.3,0.1,0.6,0.2,0.9c3.3,1,5.8,3.6,6.7,7.3c0.3,1.4,0.3,2.9,0,4.2c4.4,3.6,10.5,5.1,16.8,3.7l0,0
			c9.6-2.2,15.5-10.2,14.7-20L654.4,254.4L654.4,254.4z"/>
		
			<linearGradient id="SVGID_28_" gradientUnits="userSpaceOnUse" x1="678.2075" y1="1880.0282" x2="684.9033" y2="1880.0282" gradientTransform="matrix(0.9766 -0.2149 0.2149 0.9766 -397.8108 -1426.8254)">
			<stop  offset="0" style="stop-color:#F77775"/>
			<stop  offset="1" style="stop-color:#F76D5C"/>
		</linearGradient>
		<polygon class="st79" points="667.8,260.3 674.3,258.8 675.8,265.3 669.3,266.8 		"/>
	</g>
	<polygon class="st59" points="861.7,686.5 897.7,649.2 894.6,646.4 857.7,684.3 	"/>
	<polygon class="st59" points="885.7,699.1 917.4,666.5 914.3,663.7 881.6,697.1 	"/>
	
		<linearGradient id="SVGID_29_" gradientUnits="userSpaceOnUse" x1="713.3583" y1="1921.8268" x2="752.1062" y2="1921.8268" gradientTransform="matrix(0.9766 -0.2149 0.2149 0.9766 -397.8108 -1426.8254)">
		<stop  offset="0" style="stop-color:#F77775"/>
		<stop  offset="1" style="stop-color:#F76D5C"/>
	</linearGradient>
	<polygon class="st80" points="709.8,287.4 750.1,303.1 751.9,298.6 710.4,282.5 	"/>
	
		<linearGradient id="SVGID_30_" gradientUnits="userSpaceOnUse" x1="706.6042" y1="1938.7538" x2="739.5888" y2="1938.7538" gradientTransform="matrix(0.9766 -0.2149 0.2149 0.9766 -397.8108 -1426.8254)">
		<stop  offset="0" style="stop-color:#F77775"/>
		<stop  offset="1" style="stop-color:#F76D5C"/>
	</linearGradient>
	<polygon class="st81" points="707.3,307.5 740.5,320.1 742.9,315.8 708.3,302.7 	"/>
	<polygon class="st59" points="546.1,756.7 594.8,744.7 593.4,740.7 543.1,752.1 	"/>
	<polygon class="st59" points="531.1,734.6 586.8,722.4 585.2,717.5 529.3,732 	"/>
	
		<linearGradient id="SVGID_31_" gradientUnits="userSpaceOnUse" x1="505.4338" y1="1969.0219" x2="544.3023" y2="1969.0219" gradientTransform="matrix(0.9766 -0.2149 0.2149 0.9766 -397.8108 -1426.8254)">
		<stop  offset="0" style="stop-color:#F77775"/>
		<stop  offset="1" style="stop-color:#F76D5C"/>
	</linearGradient>
	<polygon class="st82" points="554.9,370 524.3,401.4 521.2,397.7 552.3,365.2 	"/>
	
		<linearGradient id="SVGID_32_" gradientUnits="userSpaceOnUse" x1="514.7006" y1="1987.5292" x2="550.0443" y2="1987.5292" gradientTransform="matrix(0.9766 -0.2149 0.2149 0.9766 -397.8108 -1426.8254)">
		<stop  offset="0" style="stop-color:#F77775"/>
		<stop  offset="1" style="stop-color:#F76D5C"/>
	</linearGradient>
	<polygon class="st83" points="564.6,387.6 537.1,416.2 533.9,412.5 562.3,383.4 	"/>
	<polygon class="st55" points="599,483.4 610.7,472.4 610.7,472.4 602.8,487.4 	"/>
	<g>
		<path id="Path_4113_30_" class="st52" d="M656.3,404.3L450.8,956.4c0,0-23.6,31.7-115.4,67.8c-14.7,10.9-9.1,21.2,1.2,34.2
			c99.8,2.9,130.5-95.5,130.5-95.5l205.5-552.1L656.3,404.3z"/>
		<path id="Path_4137_30_" class="st59" d="M419.2,984.1c-13.7,9.3-34.5,21.1-64.4,33.8c-0.2,0.2,1.2,36.7,1.4,37.2
			c35.3-3.1,59.8-20.5,76.5-39.3C432.9,1016,419.5,984.5,419.2,984.1z"/>
		<line class="st84" x1="366.1" y1="1055.5" x2="365" y2="1012.5"/>
		<line class="st84" x1="380.5" y1="1051.1" x2="378.3" y2="1014.2"/>
		<polyline class="st84" points="413,1034.8 396.3,1013.6 387,1002.7 375.3,1008.7 400,1042.5 		"/>
		<path class="st85" d="M423.4,1024.3"/>
		<line class="st84" x1="406.2" y1="990.9" x2="405.6" y2="1024.3"/>
		<line class="st84" x1="418.9" y1="984" x2="418.2" y2="1031.5"/>
	</g>
	<path class="st55" d="M591.7,624.7l-94.3,39.2c-2.8-9.9-2.4-22.8,0.4-37.6l80-1.4L591.7,624.7z"/>
	<linearGradient id="SVGID_33_" gradientUnits="userSpaceOnUse" x1="667.4933" y1="384.4453" x2="709.8127" y2="400.8038">
		<stop  offset="0" style="stop-color:#000000;stop-opacity:0"/>
		<stop  offset="1" style="stop-color:#000000"/>
	</linearGradient>
	<path class="st86" d="M705,319.2c0-0.1-0.1-0.3-0.1-0.4h0l-143.6,58.3l2.3,9.3c4.3,13.4,9.6,28.1,16.2,44.3h0.4l105.9-50.9
		c0.3-0.5,0.6-1.1,1-1.9c0.1-0.3,0.3-0.6,0.4-0.9c0,0,0,0,0-0.1c0.2-0.3,0.3-0.7,0.5-1.1c0.3-0.8,0.7-1.6,1.1-2.5
		c0.2-0.5,0.4-1,0.6-1.5c0.2-0.5,0.4-0.9,0.5-1.4c0.6-1.4,1.1-3,1.8-4.6c0.3-0.7,0.5-1.3,0.8-2c0.2-0.5,0.3-1,0.5-1.5
		c0.3-0.8,0.6-1.7,0.9-2.6c0.1-0.4,0.3-0.7,0.4-1.1c0.3-0.8,0.5-1.5,0.8-2.3c0-0.1,0.1-0.2,0.1-0.3c0.2-0.6,0.4-1.1,0.5-1.7
		c1.2-3.7,2.4-7.8,3.6-12.1c0.2-0.8,0.4-1.6,0.7-2.4c0.1-0.4,0.2-0.8,0.3-1.1c0.3-1,0.5-2,0.8-3c0.2-0.5,0.3-1.1,0.4-1.6
		c0.3-1.1,0.6-2.3,0.8-3.4c0.1-0.5,0.3-1.1,0.4-1.7c0.1-0.5,0.2-1,0.4-1.5c0.4-1.9,0.9-3.8,1.3-5.7c0.2-0.7,0.3-1.4,0.5-2.2v0
		C705.1,319.5,705.1,319.3,705,319.2z"/>
	<polyline class="st87" points="551.7,444.4 580.2,430.7 686.1,379.9 691.9,377.1 	"/>
	<polygon class="st55" points="939.2,727.6 951.4,734.2 967,709.9 962.1,705.6 	"/>
	<linearGradient id="SVGID_34_" gradientUnits="userSpaceOnUse" x1="1017.3876" y1="666.4375" x2="1017.3876" y2="666.4375">
		<stop  offset="0" style="stop-color:#F76D6D"/>
		<stop  offset="1" style="stop-color:#FF2D17"/>
	</linearGradient>
	<path class="st88" d="M1017.4,666.4"/>
	<g>
		<path id="Path_4073_54_" class="st52" d="M614,785.1c17.5,10.7,34,42.9,32.7,50.7c-5.9,4.4-7.2,2.2-13.6,5.9
			c-9.7,2.3-18.5,7.2-28,10.6c-5.1,1.7-36.2,27.3-47.2,12.6c-10.9-14.5,22.6-30,27-44.4c0.9-2.9-4.1-17.4-1.8-20.2
			C583.8,797.9,611.9,783.8,614,785.1"/>
		<path class="st89" d="M596.2,792.2c0,0,9.9,16.2,8.4,21.9c-3.8,13.6-44.6,34.8-44.6,34.8s4.3-4.9,10-10.4
			c10.3-9.9,16.1-15.9,15.1-20.3c-4.1-17.4-2-18-2-18L596.2,792.2"/>
		<path id="Path_4074_54_" class="st61" d="M563.1,868.3c0,0,3.6,8.8,18.6,6.5c15.3-2.4,67.6-17.7,68.7-24.2
			c1.2-7.2-2.5-6.6-2.5-6.6l-55.8,19.5L563.1,868.3z"/>
		<g>
			<path class="st62" d="M646.9,835.5c0,0-14,4.2-18.2,6.4c-14.6,7.7-65.5,26.2-66.9,26.7c0.7,0,11.6,3.3,24.6,1.1
				c13.4-2.2,59.4-17.5,62.8-22.1C652.6,843.1,646.9,835.5,646.9,835.5z M622.9,856.1l-18.7,5.8l-1.8-1l-4.4,0l2.6-5.2l17.3-7.2
				l0.5,2.9l6.7,1.9L622.9,856.1z"/>
			<path class="st62" d="M561.8,868.7C561.8,868.7,561.8,868.7,561.8,868.7C561.8,868.7,561.8,868.7,561.8,868.7z"/>
		</g>
		
			<linearGradient id="SVGID_35_" gradientUnits="userSpaceOnUse" x1="1328.9694" y1="2192.0786" x2="1349.4042" y2="2192.0786" gradientTransform="matrix(0.9236 -0.3833 0.3833 0.9236 -1465.9218 -671.8595)">
			<stop  offset="0" style="stop-color:#F76D6D"/>
			<stop  offset="1" style="stop-color:#FF2D17"/>
		</linearGradient>
		<polygon class="st90" points="624.2,844.2 598.2,834.8 622.8,844.8 		"/>
		
			<linearGradient id="SVGID_36_" gradientUnits="userSpaceOnUse" x1="2024.1132" y1="2644.1179" x2="2047.8773" y2="2644.1179" gradientTransform="matrix(0.8096 -0.3365 0.3368 0.8128 -1907.8373 -631.9456)">
			<stop  offset="0" style="stop-color:#F76D6D"/>
			<stop  offset="1" style="stop-color:#FF2D17"/>
		</linearGradient>
		<polygon class="st91" points="644.1,836.4 617.9,827.5 642.5,836.9 		"/>
		
			<linearGradient id="SVGID_37_" gradientUnits="userSpaceOnUse" x1="1613.8326" y1="1767.8785" x2="1629.7841" y2="1767.8785" gradientTransform="matrix(0.9533 -0.3021 0.3021 0.9533 -1451.8573 -357.1049)">
			<stop  offset="0" style="stop-color:#F76D6D"/>
			<stop  offset="1" style="stop-color:#FF2D17"/>
		</linearGradient>
		<polyline class="st92" points="622.3,842.7 635.6,835.1 633,834.2 621.1,842.2 		"/>
		
			<linearGradient id="SVGID_38_" gradientUnits="userSpaceOnUse" x1="1345.0802" y1="2194.3052" x2="1359.1876" y2="2194.3052" gradientTransform="matrix(0.9236 -0.3833 0.3833 0.9236 -1465.9218 -671.8595)">
			<stop  offset="0" style="stop-color:#F76D6D"/>
			<stop  offset="1" style="stop-color:#FF2D17"/>
		</linearGradient>
		<polygon class="st93" points="618.8,841 630.2,833.1 628.4,832.5 618.1,840.9 		"/>
		
			<linearGradient id="SVGID_39_" gradientUnits="userSpaceOnUse" x1="1342.1896" y1="2191.541" x2="1356.297" y2="2191.541" gradientTransform="matrix(0.9236 -0.3833 0.3833 0.9236 -1465.9218 -671.8595)">
			<stop  offset="0" style="stop-color:#F76D6D"/>
			<stop  offset="1" style="stop-color:#FF2D17"/>
		</linearGradient>
		<polygon class="st94" points="615.1,839.6 626.5,831.7 624.6,831.1 614.4,839.4 		"/>
		
			<linearGradient id="SVGID_40_" gradientUnits="userSpaceOnUse" x1="1339.2513" y1="2189.0125" x2="1353.3588" y2="2189.0125" gradientTransform="matrix(0.9236 -0.3833 0.3833 0.9236 -1465.9218 -671.8595)">
			<stop  offset="0" style="stop-color:#F76D6D"/>
			<stop  offset="1" style="stop-color:#FF2D17"/>
		</linearGradient>
		<polygon class="st95" points="611.4,838.3 622.8,830.5 621,829.9 610.7,838.2 		"/>
		<g>
			<linearGradient id="SVGID_41_" gradientUnits="userSpaceOnUse" x1="617.8834" y1="815.7623" x2="623.0933" y2="815.7623">
				<stop  offset="0" style="stop-color:#F76D6D"/>
				<stop  offset="1" style="stop-color:#FF2D17"/>
			</linearGradient>
			<path class="st96" d="M622.2,816.8l-1-1.8l-0.1,2.3l-0.3,0.1l-1.6-1.6l0.5,2l-0.9,0.4l-0.8-3.5l0.9-0.4l1.5,1.5l0.1-2.1l0.9-0.4
				l1.8,3.1L622.2,816.8L622.2,816.8z"/>
			<g>
				<linearGradient id="SVGID_42_" gradientUnits="userSpaceOnUse" x1="621.6181" y1="814.4493" x2="625.2222" y2="814.4493">
					<stop  offset="0" style="stop-color:#F76D6D"/>
					<stop  offset="1" style="stop-color:#FF2D17"/>
				</linearGradient>
				<path class="st97" d="M624.3,814L624.3,814c0.2-0.3,0.3-0.6,0.1-0.9c-0.2-0.5-0.8-0.7-1.4-0.5l-1.5,0.6l1.8,3.1l1-0.4
					c0.6-0.2,0.9-0.8,0.7-1.4C625,814.2,624.7,814,624.3,814z M622.8,813.6l0.5-0.2c0.2-0.1,0.4,0,0.4,0.2l0,0
					c0.1,0.2,0,0.3-0.2,0.4l-0.5,0.2L622.8,813.6z M624,815.3l-0.5,0.2l-0.2-0.6l0.5-0.2c0.2-0.1,0.4,0,0.4,0.2
					C624.3,815,624.2,815.2,624,815.3z"/>
			</g>
			<linearGradient id="SVGID_43_" gradientUnits="userSpaceOnUse" x1="624.6004" y1="813.2654" x2="628.3127" y2="813.2654">
				<stop  offset="0" style="stop-color:#F76D6D"/>
				<stop  offset="1" style="stop-color:#FF2D17"/>
			</linearGradient>
			<path class="st98" d="M627.3,813.3c0.1,0.4-0.1,0.8-0.5,0.9c-0.5,0.2-1-0.1-1.2-0.6c-0.2-0.5,0-1,0.5-1.2c0.4-0.1,0.7,0,1,0.3
				l0.9-0.4c-0.5-0.8-1.4-1.1-2.2-0.8c-0.6,0.2-1,0.7-1.2,1.3c0,0.1,0.1,0.1,0.1,0.2c0.1,0.3,0.1,0.6-0.1,0.8c0,0,0,0.1,0,0.1
				c0.3,0.1,0.6,0.3,0.7,0.6c0.1,0.1,0.1,0.3,0.1,0.4c0.5,0.3,1.1,0.3,1.7,0.1l0,0c0.9-0.3,1.3-1.2,1.1-2.1L627.3,813.3L627.3,813.3
				z"/>
			<linearGradient id="SVGID_44_" gradientUnits="userSpaceOnUse" x1="628.6976" y1="813.8135" x2="629.5339" y2="813.8135">
				<stop  offset="0" style="stop-color:#F76D6D"/>
				<stop  offset="1" style="stop-color:#FF2D17"/>
			</linearGradient>
			<polygon class="st99" points="628.7,813.6 629.3,813.4 629.5,814 628.9,814.2 			"/>
		</g>
		<polygon class="st59" points="584.6,817.4 598.2,812.1 597.6,810.7 584.5,815.8 		"/>
		<polygon class="st59" points="583.7,811.9 596.2,806.9 595.7,805.5 583.4,810.3 		"/>
		<linearGradient id="SVGID_45_" gradientUnits="userSpaceOnUse" x1="616.1844" y1="814.7813" x2="631.6889" y2="814.7813">
			<stop  offset="0" style="stop-color:#F76D6D"/>
			<stop  offset="1" style="stop-color:#FF2D17"/>
		</linearGradient>
		<polygon class="st100" points="617.2,819.6 616.5,813.8 621.9,810 628.7,810.2 631.4,814.2 625.4,819.2 		"/>
	</g>
</g>
<linearGradient id="SVGID_46_" gradientUnits="userSpaceOnUse" x1="121.1598" y1="1304.6163" x2="364.1559" y2="1181.7814">
	<stop  offset="0" style="stop-color:#FFFFFF"/>
	<stop  offset="1" style="stop-color:#000000;stop-opacity:0.1"/>
</linearGradient>
<path class="st101" d="M199.6,1285.8c-0.1-0.5-0.3-0.9-0.5-1.3l-3.6-17.4c0-0.2,0-0.4-0.1-0.6c0-0.1-0.1-0.3-0.1-0.4l0,0l0,0
	c-2.1-6.4-18.9-8.3-38-4.1c-19.6,4.3-34.3,13.2-32.8,20c0.1,0.4,0.2,0.8,0.4,1.1l3.7,16.5c-0.1,0.6-0.1,1.1,0,1.7
	c1.5,6.8,18.6,8.8,38.1,4.5S201.1,1292.6,199.6,1285.8z"/>
<g class="st102">
	<path class="st55" d="M1002.4,785.9c-3.5-3.1-14.3,0.7-20.8,3.4c-3.4-0.8-8.1-0.1-14.5,3.5c-22.5,12.4-17.2,19.7-29.3,32.4
		c-2.4,2.5-6.2,9-22.9,19.5c-0.2,0.2-0.3,0.4-0.3,0.8c-26.8,13.8-83.1,42.7-139.9,72.3l-4.8,2.5l0,0c-26,13.5-14.8,5.5-37.9,17.7
		l26,32.2c30.3-20,2.1-1.5,36-23.6l0,0l5.5-3.6l0,0c9.8-6.4,19.4-12.7,28.8-18.8l0,0l5.5-3.6l0,0c33.4-21.7,63.1-41,82.9-53.8
		l2.9-1.9c0.2-0.1,0.3-0.2,0.5-0.3c36.8-16.9,41.6-17.1,75-37.5c5.6-2.4,12.5-5.8,15.2-9.1C1015.5,811.9,1007.5,790.5,1002.4,785.9z
		"/>
</g>
<linearGradient id="SVGID_47_" gradientUnits="userSpaceOnUse" x1="588.2684" y1="509.0019" x2="617.3752" y2="495.618">
	<stop  offset="0" style="stop-color:#000000;stop-opacity:0"/>
	<stop  offset="1" style="stop-color:#000000"/>
</linearGradient>
<polygon class="st103" points="566.3,448.4 602.8,487.4 615.4,514.1 591.6,578.1 510.3,557.4 "/>
</svg>
