<svg xmlns="http://www.w3.org/2000/svg" width="32" height="31.511" viewBox="0 0 32 31.511"><path d="M16,9.914a8.08,8.08,0,1,0,8.2,8.079A8.129,8.129,0,0,0,16,9.914Zm0,13.331a5.253,5.253,0,1,1,5.333-5.252A5.3,5.3,0,0,1,16,23.245ZM26.45,9.584A1.913,1.913,0,1,1,24.536,7.7,1.895,1.895,0,0,1,26.45,9.584ZM31.882,11.5a9.248,9.248,0,0,0-2.584-6.6,9.612,9.612,0,0,0-6.7-2.545c-2.641-.148-10.558-.148-13.2,0a9.6,9.6,0,0,0-6.7,2.538,9.278,9.278,0,0,0-2.584,6.6c-.15,2.6-.15,10.4,0,13a9.248,9.248,0,0,0,2.584,6.6,9.624,9.624,0,0,0,6.7,2.545c2.641.148,10.558.148,13.2,0a9.549,9.549,0,0,0,6.7-2.545,9.308,9.308,0,0,0,2.584-6.6c.15-2.6.15-10.392,0-12.994ZM28.47,27.281a5.359,5.359,0,0,1-3.041,3c-2.106.823-7.1.633-9.43.633s-7.332.183-9.43-.633a5.359,5.359,0,0,1-3.041-3c-.835-2.074-.642-7-.642-9.288S2.7,10.772,3.527,8.7a5.359,5.359,0,0,1,3.041-3c2.106-.823,7.1-.633,9.43-.633s7.332-.183,9.43.633a5.359,5.359,0,0,1,3.041,3c.835,2.074.642,7,.642,9.288S29.305,25.214,28.47,27.281Z" transform="translate(0.005 -2.238)" fill="orange"/></svg>